<?xml version="1.0" standalone="no"?>
 <!DOCTYPE svg PUBLIC "-//W3C//DTD SVG 1.1//EN" 
 "http://www.w3.org/Graphics/SVG/1.1/DTD/svg11.dtd"> 
<svg
  xmlns:svg="http://www.w3.org/2000/svg"
  xmlns="http://www.w3.org/2000/svg"
  xmlns:xlink="http://www.w3.org/1999/xlink"
  version="1.1"
  width="41.998900cm" height="29.700220cm" viewBox="0 0 419989000 297002200">
<title>SVG Picture created as digitsbest-B_Silkscreen.svg date 2022/09/03 02:04:27 </title>
  <desc>Picture generated by PCBNEW </desc>
<g style="fill:#000000; fill-opacity:1.000000;stroke:#000000; stroke-opacity:1.000000;
stroke-linecap:round; stroke-linejoin:round;"
 transform="translate(0 0) scale(1 1)">
</g>
<g style="fill:#000000; fill-opacity:0.0; 
stroke:#000000; stroke-width:0.000000; stroke-opacity:1; 
stroke-linecap:round; stroke-linejoin:round;">
</g>
<g style="fill:#000000; fill-opacity:1.0; 
stroke:#000000; stroke-width:21200.000000; stroke-opacity:1; 
stroke-linecap:round; stroke-linejoin:round;">
<rect x="73268567.000000" y="79110276.000000" width="134454673.000000" height="93937801.000000" rx="0.000000" />
</g>
<g style="fill:#FFFFFF; fill-opacity:1.0; 
stroke:#FFFFFF; stroke-width:21200.000000; stroke-opacity:1; 
stroke-linecap:round; stroke-linejoin:round;">
</g>
<g style="fill:#FFFFFF; fill-opacity:1.0; 
stroke:#FFFFFF; stroke-width:150000.000000; stroke-opacity:1; 
stroke-linecap:round; stroke-linejoin:round;">
</g>
<g style="fill:#FFFFFF; fill-opacity:0.0; 
stroke:#FFFFFF; stroke-width:150000.000000; stroke-opacity:1; 
stroke-linecap:round; stroke-linejoin:round;">
<text x="153670000.000000" y="145272000.000000"
transform="scale(-1 1) translate(-307340000.000000 0)"
textLength="13278571.000000" font-size="2666666.000000" lengthAdjust="spacingAndGlyphs"
text-anchor="middle" opacity="0">The Digit</text>
<g class="stroked-text"><desc>The Digit</desc>
<path d="M160193809 143176761
L159050952 143176761
" />
<path d="M159622380 145176761
L159622380 143176761
" />
<path d="M158384285 145176761
L158384285 143176761
" />
<path d="M157527142 145176761
L157527142 144129142
L157622380 143938666
L157812857 143843428
L158098571 143843428
L158289047 143938666
L158384285 144033904
" />
<path d="M155812857 145081523
L156003333 145176761
L156384285 145176761
L156574761 145081523
L156670000 144891047
L156670000 144129142
L156574761 143938666
L156384285 143843428
L156003333 143843428
L155812857 143938666
L155717619 144129142
L155717619 144319619
L156670000 144510095
" />
<path d="M153336666 145176761
L153336666 143176761
L152860476 143176761
L152574761 143272000
L152384285 143462476
L152289047 143652952
L152193809 144033904
L152193809 144319619
L152289047 144700571
L152384285 144891047
L152574761 145081523
L152860476 145176761
L153336666 145176761
" />
<path d="M151336666 145176761
L151336666 143843428
" />
<path d="M151336666 143176761
L151431904 143272000
L151336666 143367238
L151241428 143272000
L151336666 143176761
L151336666 143367238
" />
<path d="M149527142 143843428
L149527142 145462476
L149622380 145652952
L149717619 145748190
L149908095 145843428
L150193809 145843428
L150384285 145748190
" />
<path d="M149527142 145081523
L149717619 145176761
L150098571 145176761
L150289047 145081523
L150384285 144986285
L150479523 144795809
L150479523 144224380
L150384285 144033904
L150289047 143938666
L150098571 143843428
L149717619 143843428
L149527142 143938666
" />
<path d="M148574761 145176761
L148574761 143843428
" />
<path d="M148574761 143176761
L148670000 143272000
L148574761 143367238
L148479523 143272000
L148574761 143176761
L148574761 143367238
" />
<path d="M147908095 143843428
L147146190 143843428
" />
<path d="M147622380 143176761
L147622380 144891047
L147527142 145081523
L147336666 145176761
L147146190 145176761
" />
</g></g>
<g style="fill:#FFFFFF; fill-opacity:0.0; 
stroke:#FFFFFF; stroke-width:50000.000000; stroke-opacity:1; 
stroke-linecap:round; stroke-linejoin:round;">
<text x="156972000.000000" y="146046000.000000"
transform="scale(-1 1) translate(-313944000.000000 0)"
textLength="5733571.000000" font-size="666666.000000" lengthAdjust="spacingAndGlyphs"
text-anchor="middle" opacity="0">By Jamie Smith</text>
<g class="stroked-text"><desc>By Jamie Smith</desc>
<path d="M159650571 145760285
L159579142 145784095
L159555333 145807904
L159531523 145855523
L159531523 145926952
L159555333 145974571
L159579142 145998380
L159626761 146022190
L159817238 146022190
L159817238 145522190
L159650571 145522190
L159602952 145546000
L159579142 145569809
L159555333 145617428
L159555333 145665047
L159579142 145712666
L159602952 145736476
L159650571 145760285
L159817238 145760285
" />
<path d="M159364857 145688857
L159245809 146022190
" />
<path d="M159126761 145688857
L159245809 146022190
L159293428 146141238
L159317238 146165047
L159364857 146188857
" />
<path d="M158412476 145522190
L158412476 145879333
L158436285 145950761
L158483904 145998380
L158555333 146022190
L158602952 146022190
" />
<path d="M157960095 146022190
L157960095 145760285
L157983904 145712666
L158031523 145688857
L158126761 145688857
L158174380 145712666
" />
<path d="M157960095 145998380
L158007714 146022190
L158126761 146022190
L158174380 145998380
L158198190 145950761
L158198190 145903142
L158174380 145855523
L158126761 145831714
L158007714 145831714
L157960095 145807904
" />
<path d="M157722000 146022190
L157722000 145688857
" />
<path d="M157722000 145736476
L157698190 145712666
L157650571 145688857
L157579142 145688857
L157531523 145712666
L157507714 145760285
L157507714 146022190
" />
<path d="M157507714 145760285
L157483904 145712666
L157436285 145688857
L157364857 145688857
L157317238 145712666
L157293428 145760285
L157293428 146022190
" />
<path d="M157055333 146022190
L157055333 145688857
" />
<path d="M157055333 145522190
L157079142 145546000
L157055333 145569809
L157031523 145546000
L157055333 145522190
L157055333 145569809
" />
<path d="M156626761 145998380
L156674380 146022190
L156769619 146022190
L156817238 145998380
L156841047 145950761
L156841047 145760285
L156817238 145712666
L156769619 145688857
L156674380 145688857
L156626761 145712666
L156602952 145760285
L156602952 145807904
L156841047 145855523
" />
<path d="M156031523 145998380
L155960095 146022190
L155841047 146022190
L155793428 145998380
L155769619 145974571
L155745809 145926952
L155745809 145879333
L155769619 145831714
L155793428 145807904
L155841047 145784095
L155936285 145760285
L155983904 145736476
L156007714 145712666
L156031523 145665047
L156031523 145617428
L156007714 145569809
L155983904 145546000
L155936285 145522190
L155817238 145522190
L155745809 145546000
" />
<path d="M155531523 146022190
L155531523 145688857
" />
<path d="M155531523 145736476
L155507714 145712666
L155460095 145688857
L155388666 145688857
L155341047 145712666
L155317238 145760285
L155317238 146022190
" />
<path d="M155317238 145760285
L155293428 145712666
L155245809 145688857
L155174380 145688857
L155126761 145712666
L155102952 145760285
L155102952 146022190
" />
<path d="M154864857 146022190
L154864857 145688857
" />
<path d="M154864857 145522190
L154888666 145546000
L154864857 145569809
L154841047 145546000
L154864857 145522190
L154864857 145569809
" />
<path d="M154698190 145688857
L154507714 145688857
" />
<path d="M154626761 145522190
L154626761 145950761
L154602952 145998380
L154555333 146022190
L154507714 146022190
" />
<path d="M154341047 146022190
L154341047 145522190
" />
<path d="M154126761 146022190
L154126761 145760285
L154150571 145712666
L154198190 145688857
L154269619 145688857
L154317238 145712666
L154341047 145736476
" />
</g></g>
<g style="fill:#FFFFFF; fill-opacity:0.0; 
stroke:#FFFFFF; stroke-width:150000.000000; stroke-opacity:1; 
stroke-linecap:round; stroke-linejoin:round;">
<path d="M181509718 88249276
L181509718 90789276
" />
<path d="M181509718 90789276
L184049718 90789276
" />
<path d="M181509718 88249276
L184049718 88249276
" />
<path d="M184049718 90789276
L184049718 88249276
" />
<g >
</g>
<g >
</g>
<g >
</g>
<g >
</g>
<g >
</g>
<g >
</g>
<g >
</g>
<g >
</g>
<g >
</g>
<g style="fill:#FFFFFF; fill-opacity:0.0; 
stroke:#FFFFFF; stroke-width:150000.000000; stroke-opacity:1; 
stroke-linecap:round; stroke-linejoin:round;">
</g>
<g style="fill:#FFFFFF; fill-opacity:1.0; 
stroke:#FFFFFF; stroke-width:1.000000; stroke-opacity:1; 
stroke-linecap:round; stroke-linejoin:round;">
<circle cx="165354000.000000" cy="120638000.000000" r="500000.000000" /> 
</g>
<g style="fill:#FFFFFF; fill-opacity:1.0; 
stroke:#FFFFFF; stroke-width:21200.000000; stroke-opacity:1; 
stroke-linecap:round; stroke-linejoin:round;">
</g>
<g style="fill:#FFFFFF; fill-opacity:1.0; 
stroke:#FFFFFF; stroke-width:1.000000; stroke-opacity:1; 
stroke-linecap:round; stroke-linejoin:round;">
<circle cx="165354000.000000" cy="119138000.000000" r="500000.000000" /> 
</g>
<g style="fill:#FFFFFF; fill-opacity:1.0; 
stroke:#FFFFFF; stroke-width:21200.000000; stroke-opacity:1; 
stroke-linecap:round; stroke-linejoin:round;">
</g>
<g >
</g>
<g >
</g>
<g >
</g>
<g >
</g>
<g >
</g>
<g >
</g>
<g >
</g>
<g >
</g>
<g >
</g>
<g >
</g>
<g >
</g>
<g >
</g>
<g >
</g>
<g >
</g>
<g >
</g>
<g >
</g>
<g >
</g>
<g >
</g>
<g >
</g>
<g >
</g>
</g> 
</svg>
