<?xml version="1.0" standalone="no"?>
 <!DOCTYPE svg PUBLIC "-//W3C//DTD SVG 1.1//EN" 
 "http://www.w3.org/Graphics/SVG/1.1/DTD/svg11.dtd"> 
<svg
  xmlns:svg="http://www.w3.org/2000/svg"
  xmlns="http://www.w3.org/2000/svg"
  xmlns:xlink="http://www.w3.org/1999/xlink"
  version="1.1"
  width="41.998900cm" height="29.700220cm" viewBox="0 0 419989000 297002200">
<title>SVG Picture created as digitsbest-F_Silkscreen.svg date 2022/09/03 02:04:27 </title>
  <desc>Picture generated by PCBNEW </desc>
<g style="fill:#000000; fill-opacity:1.000000;stroke:#000000; stroke-opacity:1.000000;
stroke-linecap:round; stroke-linejoin:round;"
 transform="translate(0 0) scale(1 1)">
</g>
<g style="fill:#000000; fill-opacity:0.0; 
stroke:#000000; stroke-width:0.000000; stroke-opacity:1; 
stroke-linecap:round; stroke-linejoin:round;">
</g>
<g style="fill:#000000; fill-opacity:1.0; 
stroke:#000000; stroke-width:21200.000000; stroke-opacity:1; 
stroke-linecap:round; stroke-linejoin:round;">
<rect x="73268567.000000" y="79110276.000000" width="134454673.000000" height="93937801.000000" rx="0.000000" />
</g>
<g style="fill:#FFFFFF; fill-opacity:1.0; 
stroke:#FFFFFF; stroke-width:21200.000000; stroke-opacity:1; 
stroke-linecap:round; stroke-linejoin:round;">
</g>
<g style="fill:#FFFFFF; fill-opacity:1.0; 
stroke:#FFFFFF; stroke-width:150000.000000; stroke-opacity:1; 
stroke-linecap:round; stroke-linejoin:round;">
</g>
<g style="fill:#FFFFFF; fill-opacity:0.0; 
stroke:#FFFFFF; stroke-width:150000.000000; stroke-opacity:1; 
stroke-linecap:round; stroke-linejoin:round;">
<text x="153670000.000000" y="145272000.000000"
textLength="13493571.000000" font-size="2666666.000000" lengthAdjust="spacingAndGlyphs"
text-anchor="middle" opacity="0">The Digit</text>
<g class="stroked-text"><desc>The Digit</desc>
<path d="M147146190 143176761
L148289047 143176761
" />
<path d="M147717619 145176761
L147717619 143176761
" />
<path d="M148955714 145176761
L148955714 143176761
" />
<path d="M149812857 145176761
L149812857 144129142
L149717619 143938666
L149527142 143843428
L149241428 143843428
L149050952 143938666
L148955714 144033904
" />
<path d="M151527142 145081523
L151336666 145176761
L150955714 145176761
L150765238 145081523
L150670000 144891047
L150670000 144129142
L150765238 143938666
L150955714 143843428
L151336666 143843428
L151527142 143938666
L151622380 144129142
L151622380 144319619
L150670000 144510095
" />
<path d="M154003333 145176761
L154003333 143176761
L154479523 143176761
L154765238 143272000
L154955714 143462476
L155050952 143652952
L155146190 144033904
L155146190 144319619
L155050952 144700571
L154955714 144891047
L154765238 145081523
L154479523 145176761
L154003333 145176761
" />
<path d="M156003333 145176761
L156003333 143843428
" />
<path d="M156003333 143176761
L155908095 143272000
L156003333 143367238
L156098571 143272000
L156003333 143176761
L156003333 143367238
" />
<path d="M157812857 143843428
L157812857 145462476
L157717619 145652952
L157622380 145748190
L157431904 145843428
L157146190 145843428
L156955714 145748190
" />
<path d="M157812857 145081523
L157622380 145176761
L157241428 145176761
L157050952 145081523
L156955714 144986285
L156860476 144795809
L156860476 144224380
L156955714 144033904
L157050952 143938666
L157241428 143843428
L157622380 143843428
L157812857 143938666
" />
<path d="M158765238 145176761
L158765238 143843428
" />
<path d="M158765238 143176761
L158670000 143272000
L158765238 143367238
L158860476 143272000
L158765238 143176761
L158765238 143367238
" />
<path d="M159431904 143843428
L160193809 143843428
" />
<path d="M159717619 143176761
L159717619 144891047
L159812857 145081523
L160003333 145176761
L160193809 145176761
" />
</g></g>
<g style="fill:#FFFFFF; fill-opacity:0.0; 
stroke:#FFFFFF; stroke-width:50000.000000; stroke-opacity:1; 
stroke-linecap:round; stroke-linejoin:round;">
<text x="150368000.000000" y="146046000.000000"
textLength="6123571.000000" font-size="666666.000000" lengthAdjust="spacingAndGlyphs"
text-anchor="middle" opacity="0">By Jamie Smith</text>
<g class="stroked-text"><desc>By Jamie Smith</desc>
<path d="M147689428 145760285
L147760857 145784095
L147784666 145807904
L147808476 145855523
L147808476 145926952
L147784666 145974571
L147760857 145998380
L147713238 146022190
L147522761 146022190
L147522761 145522190
L147689428 145522190
L147737047 145546000
L147760857 145569809
L147784666 145617428
L147784666 145665047
L147760857 145712666
L147737047 145736476
L147689428 145760285
L147522761 145760285
" />
<path d="M147975142 145688857
L148094190 146022190
" />
<path d="M148213238 145688857
L148094190 146022190
L148046571 146141238
L148022761 146165047
L147975142 146188857
" />
<path d="M148927523 145522190
L148927523 145879333
L148903714 145950761
L148856095 145998380
L148784666 146022190
L148737047 146022190
" />
<path d="M149379904 146022190
L149379904 145760285
L149356095 145712666
L149308476 145688857
L149213238 145688857
L149165619 145712666
" />
<path d="M149379904 145998380
L149332285 146022190
L149213238 146022190
L149165619 145998380
L149141809 145950761
L149141809 145903142
L149165619 145855523
L149213238 145831714
L149332285 145831714
L149379904 145807904
" />
<path d="M149618000 146022190
L149618000 145688857
" />
<path d="M149618000 145736476
L149641809 145712666
L149689428 145688857
L149760857 145688857
L149808476 145712666
L149832285 145760285
L149832285 146022190
" />
<path d="M149832285 145760285
L149856095 145712666
L149903714 145688857
L149975142 145688857
L150022761 145712666
L150046571 145760285
L150046571 146022190
" />
<path d="M150284666 146022190
L150284666 145688857
" />
<path d="M150284666 145522190
L150260857 145546000
L150284666 145569809
L150308476 145546000
L150284666 145522190
L150284666 145569809
" />
<path d="M150713238 145998380
L150665619 146022190
L150570380 146022190
L150522761 145998380
L150498952 145950761
L150498952 145760285
L150522761 145712666
L150570380 145688857
L150665619 145688857
L150713238 145712666
L150737047 145760285
L150737047 145807904
L150498952 145855523
" />
<path d="M151308476 145998380
L151379904 146022190
L151498952 146022190
L151546571 145998380
L151570380 145974571
L151594190 145926952
L151594190 145879333
L151570380 145831714
L151546571 145807904
L151498952 145784095
L151403714 145760285
L151356095 145736476
L151332285 145712666
L151308476 145665047
L151308476 145617428
L151332285 145569809
L151356095 145546000
L151403714 145522190
L151522761 145522190
L151594190 145546000
" />
<path d="M151808476 146022190
L151808476 145688857
" />
<path d="M151808476 145736476
L151832285 145712666
L151879904 145688857
L151951333 145688857
L151998952 145712666
L152022761 145760285
L152022761 146022190
" />
<path d="M152022761 145760285
L152046571 145712666
L152094190 145688857
L152165619 145688857
L152213238 145712666
L152237047 145760285
L152237047 146022190
" />
<path d="M152475142 146022190
L152475142 145688857
" />
<path d="M152475142 145522190
L152451333 145546000
L152475142 145569809
L152498952 145546000
L152475142 145522190
L152475142 145569809
" />
<path d="M152641809 145688857
L152832285 145688857
" />
<path d="M152713238 145522190
L152713238 145950761
L152737047 145998380
L152784666 146022190
L152832285 146022190
" />
<path d="M152998952 146022190
L152998952 145522190
" />
<path d="M153213238 146022190
L153213238 145760285
L153189428 145712666
L153141809 145688857
L153070380 145688857
L153022761 145712666
L152998952 145736476
" />
</g></g>
<g style="fill:#FFFFFF; fill-opacity:0.0; 
stroke:#FFFFFF; stroke-width:150000.000000; stroke-opacity:1; 
stroke-linecap:round; stroke-linejoin:round;">
<text x="162497804.000000" y="90783758.000000"
textLength="65000.000000" font-size="1693333.000000" lengthAdjust="spacingAndGlyphs"
text-anchor="middle" opacity="0"></text>
<g class="stroked-text"><desc></desc>
</g><text x="162497804.000000" y="90783758.000000"
textLength="150000.000000" font-size="1693333.000000" lengthAdjust="spacingAndGlyphs"
text-anchor="middle" opacity="0"></text>
<g class="stroked-text"><desc></desc>
</g><text x="165354000.000000" y="120523000.000000"
textLength="150000.000000" font-size="1693333.000000" lengthAdjust="spacingAndGlyphs"
text-anchor="middle" opacity="0"></text>
<g class="stroked-text"><desc></desc>
</g><text x="165354000.000000" y="120523000.000000"
textLength="150000.000000" font-size="1693333.000000" lengthAdjust="spacingAndGlyphs"
text-anchor="middle" opacity="0"></text>
<g class="stroked-text"><desc></desc>
</g><g transform="rotate(-90.000000 175159718.000000 103489276.000000)">
<text x="175159718.000000" y="104124276.000000"
textLength="150000.000000" font-size="1693333.000000" lengthAdjust="spacingAndGlyphs"
text-anchor="middle" opacity="0"></text>
</g>
<g class="stroked-text"><desc></desc>
</g><text x="162306000.000000" y="98171000.000000"
textLength="150000.000000" font-size="1693333.000000" lengthAdjust="spacingAndGlyphs"
text-anchor="middle" opacity="0"></text>
<g class="stroked-text"><desc></desc>
</g><text x="162306000.000000" y="98171000.000000"
textLength="150000.000000" font-size="1693333.000000" lengthAdjust="spacingAndGlyphs"
text-anchor="middle" opacity="0"></text>
<g class="stroked-text"><desc></desc>
</g><text x="153342105.000000" y="90993121.000000"
textLength="150000.000000" font-size="1693333.000000" lengthAdjust="spacingAndGlyphs"
text-anchor="middle" opacity="0"></text>
<g class="stroked-text"><desc></desc>
</g><text x="153342105.000000" y="90993121.000000"
textLength="150000.000000" font-size="1693333.000000" lengthAdjust="spacingAndGlyphs"
text-anchor="middle" opacity="0"></text>
<g class="stroked-text"><desc></desc>
</g><text x="100584000.000000" y="146431000.000000"
textLength="150000.000000" font-size="1693333.000000" lengthAdjust="spacingAndGlyphs"
text-anchor="middle" opacity="0"></text>
<g class="stroked-text"><desc></desc>
</g><text x="100584000.000000" y="146431000.000000"
textLength="150000.000000" font-size="1693333.000000" lengthAdjust="spacingAndGlyphs"
text-anchor="middle" opacity="0"></text>
<g class="stroked-text"><desc></desc>
</g><text x="134366000.000000" y="121031000.000000"
textLength="150000.000000" font-size="1693333.000000" lengthAdjust="spacingAndGlyphs"
text-anchor="middle" opacity="0"></text>
<g class="stroked-text"><desc></desc>
</g><text x="134366000.000000" y="121031000.000000"
textLength="150000.000000" font-size="1693333.000000" lengthAdjust="spacingAndGlyphs"
text-anchor="middle" opacity="0"></text>
<g class="stroked-text"><desc></desc>
</g><path d="M168809718 90789276
L166269718 90789276
" />
<path d="M166269718 90789276
L166269718 88249276
" />
<path d="M168809718 88249276
L168809718 90789276
" />
<path d="M168809718 88249276
L166269718 88249276
" />
<g >
</g>
<g >
</g>
<g >
</g>
<g >
</g>
<g >
</g>
<g >
</g>
<g >
</g>
<g >
</g>
<g >
</g>
<g style="fill:#FFFFFF; fill-opacity:0.0; 
stroke:#FFFFFF; stroke-width:150000.000000; stroke-opacity:1; 
stroke-linecap:round; stroke-linejoin:round;">
</g>
<g style="fill:#FFFFFF; fill-opacity:1.0; 
stroke:#FFFFFF; stroke-width:1.000000; stroke-opacity:1; 
stroke-linecap:round; stroke-linejoin:round;">
<circle cx="165354000.000000" cy="120638000.000000" r="500000.000000" /> 
</g>
<g style="fill:#FFFFFF; fill-opacity:1.0; 
stroke:#FFFFFF; stroke-width:21200.000000; stroke-opacity:1; 
stroke-linecap:round; stroke-linejoin:round;">
</g>
<g style="fill:#FFFFFF; fill-opacity:1.0; 
stroke:#FFFFFF; stroke-width:1.000000; stroke-opacity:1; 
stroke-linecap:round; stroke-linejoin:round;">
<circle cx="165354000.000000" cy="119138000.000000" r="500000.000000" /> 
</g>
<g style="fill:#FFFFFF; fill-opacity:1.0; 
stroke:#FFFFFF; stroke-width:21200.000000; stroke-opacity:1; 
stroke-linecap:round; stroke-linejoin:round;">
</g>
<g >
</g>
<g >
</g>
<g >
</g>
<g >
</g>
<g >
</g>
<g >
</g>
<g >
</g>
<g >
</g>
<g >
</g>
<g >
</g>
<g >
</g>
<g >
</g>
<g >
</g>
<g >
</g>
<g >
</g>
<g >
</g>
<g >
</g>
<g >
</g>
<g >
</g>
<g >
</g>
</g> 
</svg>
