%TF.GenerationSoftware,KiCad,Pcbnew,(6.0.7)*%
%TF.CreationDate,2022-08-09T03:43:16+01:00*%
%TF.ProjectId,digitsbest,64696769-7473-4626-9573-742e6b696361,v1.0.0*%
%TF.SameCoordinates,Original*%
%TF.FileFunction,Legend,Bot*%
%TF.FilePolarity,Positive*%
%FSLAX46Y46*%
G04 Gerber Fmt 4.6, Leading zero omitted, Abs format (unit mm)*
G04 Created by KiCad (PCBNEW (6.0.7)) date 2022-08-09 03:43:16*
%MOMM*%
%LPD*%
G01*
G04 APERTURE LIST*
%ADD10C,0.150000*%
%ADD11C,0.050000*%
%ADD12C,1.000000*%
G04 APERTURE END LIST*
D10*
X160193809Y-143176761D02*
X159050952Y-143176761D01*
X159622380Y-145176761D02*
X159622380Y-143176761D01*
X158384285Y-145176761D02*
X158384285Y-143176761D01*
X157527142Y-145176761D02*
X157527142Y-144129142D01*
X157622380Y-143938666D01*
X157812857Y-143843428D01*
X158098571Y-143843428D01*
X158289047Y-143938666D01*
X158384285Y-144033904D01*
X155812857Y-145081523D02*
X156003333Y-145176761D01*
X156384285Y-145176761D01*
X156574761Y-145081523D01*
X156670000Y-144891047D01*
X156670000Y-144129142D01*
X156574761Y-143938666D01*
X156384285Y-143843428D01*
X156003333Y-143843428D01*
X155812857Y-143938666D01*
X155717619Y-144129142D01*
X155717619Y-144319619D01*
X156670000Y-144510095D01*
X153336666Y-145176761D02*
X153336666Y-143176761D01*
X152860476Y-143176761D01*
X152574761Y-143272000D01*
X152384285Y-143462476D01*
X152289047Y-143652952D01*
X152193809Y-144033904D01*
X152193809Y-144319619D01*
X152289047Y-144700571D01*
X152384285Y-144891047D01*
X152574761Y-145081523D01*
X152860476Y-145176761D01*
X153336666Y-145176761D01*
X151336666Y-145176761D02*
X151336666Y-143843428D01*
X151336666Y-143176761D02*
X151431904Y-143272000D01*
X151336666Y-143367238D01*
X151241428Y-143272000D01*
X151336666Y-143176761D01*
X151336666Y-143367238D01*
X149527142Y-143843428D02*
X149527142Y-145462476D01*
X149622380Y-145652952D01*
X149717619Y-145748190D01*
X149908095Y-145843428D01*
X150193809Y-145843428D01*
X150384285Y-145748190D01*
X149527142Y-145081523D02*
X149717619Y-145176761D01*
X150098571Y-145176761D01*
X150289047Y-145081523D01*
X150384285Y-144986285D01*
X150479523Y-144795809D01*
X150479523Y-144224380D01*
X150384285Y-144033904D01*
X150289047Y-143938666D01*
X150098571Y-143843428D01*
X149717619Y-143843428D01*
X149527142Y-143938666D01*
X148574761Y-145176761D02*
X148574761Y-143843428D01*
X148574761Y-143176761D02*
X148670000Y-143272000D01*
X148574761Y-143367238D01*
X148479523Y-143272000D01*
X148574761Y-143176761D01*
X148574761Y-143367238D01*
X147908095Y-143843428D02*
X147146190Y-143843428D01*
X147622380Y-143176761D02*
X147622380Y-144891047D01*
X147527142Y-145081523D01*
X147336666Y-145176761D01*
X147146190Y-145176761D01*
D11*
X159650571Y-145760285D02*
X159579142Y-145784095D01*
X159555333Y-145807904D01*
X159531523Y-145855523D01*
X159531523Y-145926952D01*
X159555333Y-145974571D01*
X159579142Y-145998380D01*
X159626761Y-146022190D01*
X159817238Y-146022190D01*
X159817238Y-145522190D01*
X159650571Y-145522190D01*
X159602952Y-145546000D01*
X159579142Y-145569809D01*
X159555333Y-145617428D01*
X159555333Y-145665047D01*
X159579142Y-145712666D01*
X159602952Y-145736476D01*
X159650571Y-145760285D01*
X159817238Y-145760285D01*
X159364857Y-145688857D02*
X159245809Y-146022190D01*
X159126761Y-145688857D02*
X159245809Y-146022190D01*
X159293428Y-146141238D01*
X159317238Y-146165047D01*
X159364857Y-146188857D01*
X158412476Y-145522190D02*
X158412476Y-145879333D01*
X158436285Y-145950761D01*
X158483904Y-145998380D01*
X158555333Y-146022190D01*
X158602952Y-146022190D01*
X157960095Y-146022190D02*
X157960095Y-145760285D01*
X157983904Y-145712666D01*
X158031523Y-145688857D01*
X158126761Y-145688857D01*
X158174380Y-145712666D01*
X157960095Y-145998380D02*
X158007714Y-146022190D01*
X158126761Y-146022190D01*
X158174380Y-145998380D01*
X158198190Y-145950761D01*
X158198190Y-145903142D01*
X158174380Y-145855523D01*
X158126761Y-145831714D01*
X158007714Y-145831714D01*
X157960095Y-145807904D01*
X157722000Y-146022190D02*
X157722000Y-145688857D01*
X157722000Y-145736476D02*
X157698190Y-145712666D01*
X157650571Y-145688857D01*
X157579142Y-145688857D01*
X157531523Y-145712666D01*
X157507714Y-145760285D01*
X157507714Y-146022190D01*
X157507714Y-145760285D02*
X157483904Y-145712666D01*
X157436285Y-145688857D01*
X157364857Y-145688857D01*
X157317238Y-145712666D01*
X157293428Y-145760285D01*
X157293428Y-146022190D01*
X157055333Y-146022190D02*
X157055333Y-145688857D01*
X157055333Y-145522190D02*
X157079142Y-145546000D01*
X157055333Y-145569809D01*
X157031523Y-145546000D01*
X157055333Y-145522190D01*
X157055333Y-145569809D01*
X156626761Y-145998380D02*
X156674380Y-146022190D01*
X156769619Y-146022190D01*
X156817238Y-145998380D01*
X156841047Y-145950761D01*
X156841047Y-145760285D01*
X156817238Y-145712666D01*
X156769619Y-145688857D01*
X156674380Y-145688857D01*
X156626761Y-145712666D01*
X156602952Y-145760285D01*
X156602952Y-145807904D01*
X156841047Y-145855523D01*
X156031523Y-145998380D02*
X155960095Y-146022190D01*
X155841047Y-146022190D01*
X155793428Y-145998380D01*
X155769619Y-145974571D01*
X155745809Y-145926952D01*
X155745809Y-145879333D01*
X155769619Y-145831714D01*
X155793428Y-145807904D01*
X155841047Y-145784095D01*
X155936285Y-145760285D01*
X155983904Y-145736476D01*
X156007714Y-145712666D01*
X156031523Y-145665047D01*
X156031523Y-145617428D01*
X156007714Y-145569809D01*
X155983904Y-145546000D01*
X155936285Y-145522190D01*
X155817238Y-145522190D01*
X155745809Y-145546000D01*
X155531523Y-146022190D02*
X155531523Y-145688857D01*
X155531523Y-145736476D02*
X155507714Y-145712666D01*
X155460095Y-145688857D01*
X155388666Y-145688857D01*
X155341047Y-145712666D01*
X155317238Y-145760285D01*
X155317238Y-146022190D01*
X155317238Y-145760285D02*
X155293428Y-145712666D01*
X155245809Y-145688857D01*
X155174380Y-145688857D01*
X155126761Y-145712666D01*
X155102952Y-145760285D01*
X155102952Y-146022190D01*
X154864857Y-146022190D02*
X154864857Y-145688857D01*
X154864857Y-145522190D02*
X154888666Y-145546000D01*
X154864857Y-145569809D01*
X154841047Y-145546000D01*
X154864857Y-145522190D01*
X154864857Y-145569809D01*
X154698190Y-145688857D02*
X154507714Y-145688857D01*
X154626761Y-145522190D02*
X154626761Y-145950761D01*
X154602952Y-145998380D01*
X154555333Y-146022190D01*
X154507714Y-146022190D01*
X154341047Y-146022190D02*
X154341047Y-145522190D01*
X154126761Y-146022190D02*
X154126761Y-145760285D01*
X154150571Y-145712666D01*
X154198190Y-145688857D01*
X154269619Y-145688857D01*
X154317238Y-145712666D01*
X154341047Y-145736476D01*
D10*
%TO.C,MCU1*%
X181509718Y-88249276D02*
X181509718Y-90789276D01*
X181509718Y-90789276D02*
X184049718Y-90789276D01*
X181509718Y-88249276D02*
X184049718Y-88249276D01*
X184049718Y-90789276D02*
X184049718Y-88249276D01*
%TD*%
D12*
%TO.C,*%
X165354000Y-120638000D03*
X165354000Y-119138000D03*
%TD*%
M02*
