<?xml version="1.0" standalone="no"?>
 <!DOCTYPE svg PUBLIC "-//W3C//DTD SVG 1.1//EN" 
 "http://www.w3.org/Graphics/SVG/1.1/DTD/svg11.dtd"> 
<svg
  xmlns:svg="http://www.w3.org/2000/svg"
  xmlns="http://www.w3.org/2000/svg"
  xmlns:xlink="http://www.w3.org/1999/xlink"
  version="1.1"
  width="41.998900cm" height="29.700220cm" viewBox="0 0 419989000 297002200">
<title>SVG Picture created as digitsbest-Edge_Cuts.svg date 2022/09/03 02:04:27 </title>
  <desc>Picture generated by PCBNEW </desc>
<g style="fill:#000000; fill-opacity:1.000000;stroke:#000000; stroke-opacity:1.000000;
stroke-linecap:round; stroke-linejoin:round;"
 transform="translate(0 0) scale(1 1)">
</g>
<g style="fill:#000000; fill-opacity:0.0; 
stroke:#000000; stroke-width:0.000000; stroke-opacity:1; 
stroke-linecap:round; stroke-linejoin:round;">
</g>
<g style="fill:#000000; fill-opacity:1.0; 
stroke:#000000; stroke-width:21200.000000; stroke-opacity:1; 
stroke-linecap:round; stroke-linejoin:round;">
<rect x="73268567.000000" y="79110276.000000" width="134454673.000000" height="93937801.000000" rx="0.000000" />
</g>
<g style="fill:#FFFFFF; fill-opacity:1.0; 
stroke:#FFFFFF; stroke-width:21200.000000; stroke-opacity:1; 
stroke-linecap:round; stroke-linejoin:round;">
</g>
<g style="fill:#FFFFFF; fill-opacity:0.0; 
stroke:#FFFFFF; stroke-width:50000.000000; stroke-opacity:1; 
stroke-linecap:round; stroke-linejoin:round;">
<path d="M131328241.726615 101431312.917393 A1047288.000000 1047288.000000 0.0 0 0 132680897.124324 102034564.324486" />
<path d="M181545869 149679201
L90592059 150420161
" />
<path d="M81787081.805048 128988649.578439 A3240568.000000 3240568.000000 0.0 0 0 80185373.437000 132900865.854226" />
<path d="M81787081 128988648
L95103644 122765052
" />
<path d="M87012655 147965261
L80185373 132900866
" />
<path d="M149117572.236487 87424724.995779 A1825762.000000 1825762.000000 0.0 0 0 147182612.861081 89089660.987999" />
<path d="M95644532 121766171
L94895149 119810276
" />
<path d="M111061819 108800334
L110104375 106990128
" />
<path d="M186601792 145828925
L186802087 89874868
" />
<path d="M149117573 87424713
L183638811 87128585
" />
<path d="M181545868.995998 149679201.675477 A5204293.000000 5204293.000000 0.0 0 0 186601792.289038 145828925.077876" />
<path d="M95976930.193453 117812544.818321 A1792517.000000 1792517.000000 0.0 0 0 94895149.026156 119810275.994969" />
<path d="M132680899 102034563
L145373268 96248032
" />
<path d="M95976918 117812515
L110125738 111006159
" />
<path d="M145373257.366088 96247998.963280 A2022054.000000 2022054.000000 0.0 0 0 146746415.245752 94666403.042326" />
<path d="M95103649.868506 122765064.264067 A966430.000000 966430.000000 0.0 0 0 95644531.922677 121766171.010261" />
<path d="M111248509.863181 104638593.437842 A1891765.000000 1891765.000000 0.0 0 0 110104376.198183 106990121.936453" />
<path d="M130141818 98851215
L131328261 101431308
" />
<path d="M130141822.897042 98851213.263338 A2647166.000000 2647166.000000 0.0 0 0 126583347.867565 97311882.698146" />
<path d="M186802053.565850 89874868.437719 A2805894.000000 2805894.000000 0.0 0 0 183638811.028249 87128585.219853" />
<path d="M87012678.369391 147965253.732936 A3502916.000000 3502916.000000 0.0 0 0 90592058.981720 150420160.727505" />
<path d="M110125728.353098 111006131.203929 A1615642.000000 1615642.000000 0.0 0 0 111061818.911906 108800334.040835" />
<path d="M146746415 94666403
L147182613 89089661
" />
<path d="M111248516 104638610
L126583344 97311884
" />
<g >
</g>
<g >
</g>
<g >
</g>
<g >
</g>
<g >
</g>
<g >
</g>
<g >
</g>
<g >
</g>
<g >
</g>
<g >
</g>
<g >
</g>
<g >
</g>
<g >
</g>
<g >
</g>
<g >
</g>
<g >
</g>
<g >
</g>
<g >
</g>
<g >
</g>
<g >
</g>
<g >
</g>
<g >
</g>
<g >
</g>
<g >
</g>
<g >
</g>
<g >
</g>
<g >
</g>
<g >
</g>
<g >
</g>
</g> 
</svg>
