%TF.GenerationSoftware,KiCad,Pcbnew,(6.0.7)*%
%TF.CreationDate,2022-08-09T03:43:16+01:00*%
%TF.ProjectId,digitsbest,64696769-7473-4626-9573-742e6b696361,v1.0.0*%
%TF.SameCoordinates,Original*%
%TF.FileFunction,Copper,L1,Top*%
%TF.FilePolarity,Positive*%
%FSLAX46Y46*%
G04 Gerber Fmt 4.6, Leading zero omitted, Abs format (unit mm)*
G04 Created by KiCad (PCBNEW (6.0.7)) date 2022-08-09 03:43:16*
%MOMM*%
%LPD*%
G01*
G04 APERTURE LIST*
G04 Aperture macros list*
%AMRotRect*
0 Rectangle, with rotation*
0 The origin of the aperture is its center*
0 $1 length*
0 $2 width*
0 $3 Rotation angle, in degrees counterclockwise*
0 Add horizontal line*
21,1,$1,$2,0,0,$3*%
%AMFreePoly0*
4,1,6,0.600000,0.200000,0.000000,-0.400000,-0.600000,0.200000,-0.600000,0.400000,0.600000,0.400000,0.600000,0.200000,0.600000,0.200000,$1*%
%AMFreePoly1*
4,1,5,0.125000,-0.500000,-0.125000,-0.500000,-0.125000,0.500000,0.125000,0.500000,0.125000,-0.500000,0.125000,-0.500000,$1*%
%AMFreePoly2*
4,1,6,0.600000,-0.250000,-0.600000,-0.250000,-0.600000,1.000000,0.000000,0.400000,0.600000,1.000000,0.600000,-0.250000,0.600000,-0.250000,$1*%
%AMFreePoly3*
4,1,49,0.088388,4.152388,0.854389,3.386388,0.867708,3.368551,0.871189,3.365530,0.871982,3.362827,0.875852,3.357644,0.882333,3.327543,0.891000,3.298000,0.891000,0.766000,0.887805,0.743969,0.888131,0.739371,0.886780,0.736898,0.885852,0.730498,0.869154,0.704638,0.854389,0.677612,0.088388,-0.088388,0.064607,-0.106146,0.062500,-0.108253,0.061385,-0.108552,0.059644,-0.109852,
0.043810,-0.113261,0.000000,-0.125000,-0.004774,-0.123721,-0.009154,-0.124664,-0.028953,-0.117242,-0.062500,-0.108253,-0.068237,-0.102516,-0.075052,-0.099961,-0.087614,-0.083139,-0.108253,-0.062500,-0.111178,-0.051584,-0.117161,-0.043572,-0.118539,-0.024114,-0.125000,0.000000,-0.121239,0.014035,-0.122131,0.026629,-0.113759,0.041953,-0.108253,0.062500,-0.095642,0.075111,-0.088388,0.088388,
0.641000,0.817777,0.641000,3.246223,-0.088388,3.975612,-0.109852,4.004356,-0.124664,4.073154,-0.099961,4.139052,-0.043572,4.181161,0.026629,4.186131,0.088388,4.152388,0.088388,4.152388,$1*%
%AMFreePoly4*
4,1,49,0.088388,4.152388,0.850389,3.390388,0.863708,3.372551,0.867189,3.369530,0.867982,3.366827,0.871852,3.361644,0.878333,3.331543,0.887000,3.302000,0.887000,0.762000,0.883805,0.739969,0.884131,0.735371,0.882780,0.732898,0.881852,0.726498,0.865154,0.700638,0.850389,0.673612,0.088388,-0.088388,0.064607,-0.106146,0.062500,-0.108253,0.061385,-0.108552,0.059644,-0.109852,
0.043810,-0.113261,0.000000,-0.125000,-0.004774,-0.123721,-0.009154,-0.124664,-0.028953,-0.117242,-0.062500,-0.108253,-0.068237,-0.102516,-0.075052,-0.099961,-0.087614,-0.083139,-0.108253,-0.062500,-0.111178,-0.051584,-0.117161,-0.043572,-0.118539,-0.024114,-0.125000,0.000000,-0.121239,0.014035,-0.122131,0.026629,-0.113759,0.041953,-0.108253,0.062500,-0.095642,0.075111,-0.088388,0.088388,
0.637000,0.813777,0.637000,3.250223,-0.088388,3.975612,-0.109852,4.004356,-0.124664,4.073154,-0.099961,4.139052,-0.043572,4.181161,0.026629,4.186131,0.088388,4.152388,0.088388,4.152388,$1*%
G04 Aperture macros list end*
%TA.AperFunction,ComponentPad*%
%ADD10C,3.800000*%
%TD*%
%TA.AperFunction,SMDPad,CuDef*%
%ADD11RotRect,0.900000X1.700000X35.000000*%
%TD*%
%TA.AperFunction,SMDPad,CuDef*%
%ADD12R,2.600000X2.600000*%
%TD*%
%TA.AperFunction,ComponentPad*%
%ADD13C,0.600000*%
%TD*%
%TA.AperFunction,ComponentPad*%
%ADD14O,2.200000X1.600000*%
%TD*%
%TA.AperFunction,SMDPad,CuDef*%
%ADD15RotRect,2.600000X2.600000X25.000000*%
%TD*%
%TA.AperFunction,ComponentPad*%
%ADD16C,1.000000*%
%TD*%
%TA.AperFunction,ComponentPad*%
%ADD17C,2.032000*%
%TD*%
%TA.AperFunction,SMDPad,CuDef*%
%ADD18FreePoly0,90.000000*%
%TD*%
%TA.AperFunction,SMDPad,CuDef*%
%ADD19FreePoly1,270.000000*%
%TD*%
%TA.AperFunction,ComponentPad*%
%ADD20C,1.600000*%
%TD*%
%TA.AperFunction,SMDPad,CuDef*%
%ADD21FreePoly1,90.000000*%
%TD*%
%TA.AperFunction,SMDPad,CuDef*%
%ADD22FreePoly0,270.000000*%
%TD*%
%TA.AperFunction,ComponentPad*%
%ADD23R,1.600000X1.600000*%
%TD*%
%TA.AperFunction,SMDPad,CuDef*%
%ADD24FreePoly2,270.000000*%
%TD*%
%TA.AperFunction,SMDPad,CuDef*%
%ADD25FreePoly3,270.000000*%
%TD*%
%TA.AperFunction,ComponentPad*%
%ADD26C,0.800000*%
%TD*%
%TA.AperFunction,SMDPad,CuDef*%
%ADD27FreePoly2,90.000000*%
%TD*%
%TA.AperFunction,SMDPad,CuDef*%
%ADD28FreePoly4,90.000000*%
%TD*%
%TA.AperFunction,SMDPad,CuDef*%
%ADD29RotRect,1.000000X0.800000X215.000000*%
%TD*%
%TA.AperFunction,SMDPad,CuDef*%
%ADD30RotRect,0.700000X1.500000X215.000000*%
%TD*%
%TA.AperFunction,ViaPad*%
%ADD31C,0.800000*%
%TD*%
%TA.AperFunction,Conductor*%
%ADD32C,0.250000*%
%TD*%
G04 APERTURE END LIST*
%TO.C,G\u002A\u002A\u002A*%
G36*
X145419900Y-142887342D02*
G01*
X145464017Y-142911069D01*
X145502410Y-142950975D01*
X145533390Y-143005495D01*
X145555269Y-143073068D01*
X145563934Y-143112971D01*
X145575227Y-143174997D01*
X145583137Y-143236412D01*
X145587925Y-143301316D01*
X145589853Y-143373814D01*
X145589181Y-143458006D01*
X145586172Y-143557996D01*
X145585484Y-143576797D01*
X145581584Y-143709117D01*
X145579555Y-143833500D01*
X145579343Y-143948445D01*
X145580899Y-144052448D01*
X145584170Y-144144008D01*
X145589106Y-144221622D01*
X145595656Y-144283788D01*
X145603767Y-144329004D01*
X145613390Y-144355768D01*
X145626383Y-144373804D01*
X145643910Y-144384113D01*
X145662241Y-144375739D01*
X145683808Y-144348430D01*
X145703200Y-144314120D01*
X145730476Y-144239708D01*
X145746718Y-144150335D01*
X145752153Y-144044991D01*
X145753670Y-144007807D01*
X145758068Y-143955893D01*
X145764649Y-143897874D01*
X145772710Y-143840730D01*
X145780795Y-143780386D01*
X145789507Y-143687809D01*
X145796592Y-143576389D01*
X145802093Y-143445574D01*
X145804621Y-143374632D01*
X145807650Y-143303997D01*
X145810821Y-143248622D01*
X145814358Y-143205896D01*
X145818485Y-143173209D01*
X145823427Y-143147949D01*
X145829407Y-143127507D01*
X145845134Y-143089059D01*
X145877455Y-143038008D01*
X145916387Y-143005065D01*
X145961326Y-142990668D01*
X146011665Y-142995257D01*
X146033626Y-143003158D01*
X146074507Y-143027368D01*
X146108932Y-143059098D01*
X146130270Y-143092889D01*
X146133387Y-143106039D01*
X146138028Y-143137744D01*
X146142995Y-143182492D01*
X146147864Y-143236382D01*
X146152213Y-143295515D01*
X146154046Y-143324218D01*
X146157351Y-143384743D01*
X146158781Y-143435176D01*
X146158174Y-143481499D01*
X146155370Y-143529698D01*
X146150206Y-143585756D01*
X146142523Y-143655657D01*
X146136504Y-143707754D01*
X146129062Y-143770597D01*
X146122115Y-143827685D01*
X146116237Y-143874307D01*
X146112003Y-143905755D01*
X146111987Y-143905867D01*
X146108805Y-143936659D01*
X146105606Y-143982994D01*
X146102623Y-144040432D01*
X146100087Y-144104534D01*
X146098227Y-144170860D01*
X146096288Y-144241187D01*
X146093234Y-144307966D01*
X146089129Y-144359971D01*
X146083740Y-144400027D01*
X146076835Y-144430962D01*
X146072690Y-144449723D01*
X146067256Y-144495372D01*
X146064352Y-144552309D01*
X146063830Y-144616073D01*
X146065543Y-144682201D01*
X146069343Y-144746229D01*
X146075080Y-144803694D01*
X146082607Y-144850133D01*
X146091777Y-144881083D01*
X146109047Y-144912485D01*
X146133863Y-144944966D01*
X146159271Y-144967648D01*
X146181177Y-144976177D01*
X146205300Y-144970033D01*
X146239469Y-144947474D01*
X146276869Y-144910353D01*
X146315037Y-144860798D01*
X146315764Y-144859738D01*
X146346499Y-144817108D01*
X146381126Y-144772206D01*
X146412285Y-144734581D01*
X146416712Y-144729427D01*
X146456820Y-144672964D01*
X146485944Y-144613865D01*
X146509111Y-144556975D01*
X146546730Y-144483798D01*
X146588151Y-144426574D01*
X146635274Y-144382847D01*
X146690000Y-144350158D01*
X146721262Y-144336693D01*
X146749263Y-144329134D01*
X146781167Y-144326532D01*
X146824962Y-144327548D01*
X146871849Y-144331627D01*
X146907369Y-144341441D01*
X146928954Y-144359437D01*
X146939662Y-144388297D01*
X146942551Y-144430705D01*
X146939607Y-144488463D01*
X146928368Y-144546448D01*
X146906857Y-144605063D01*
X146873124Y-144671057D01*
X146867700Y-144680876D01*
X146843412Y-144727780D01*
X146815518Y-144785206D01*
X146787052Y-144846785D01*
X146761052Y-144906149D01*
X146751198Y-144929334D01*
X146727891Y-144983462D01*
X146706043Y-145033304D01*
X146687737Y-145074134D01*
X146675056Y-145101226D01*
X146672696Y-145105933D01*
X146652008Y-145143673D01*
X146622213Y-145194130D01*
X146585334Y-145254135D01*
X146543395Y-145320518D01*
X146498418Y-145390108D01*
X146452425Y-145459734D01*
X146407440Y-145526228D01*
X146365485Y-145586417D01*
X146351005Y-145606919D01*
X146312549Y-145662316D01*
X146274716Y-145718001D01*
X146241215Y-145768480D01*
X146215754Y-145808258D01*
X146207184Y-145821730D01*
X146143267Y-145903731D01*
X146067547Y-145971108D01*
X145978349Y-146025131D01*
X145873994Y-146067070D01*
X145859849Y-146071667D01*
X145815291Y-146086483D01*
X145775280Y-146100235D01*
X145747080Y-146110440D01*
X145713542Y-146120201D01*
X145658703Y-146125436D01*
X145593124Y-146120268D01*
X145513679Y-146104619D01*
X145420332Y-146082285D01*
X145343612Y-146103444D01*
X145335226Y-146105762D01*
X145285275Y-146119716D01*
X145228931Y-146135632D01*
X145176856Y-146150502D01*
X145167698Y-146153091D01*
X145103307Y-146167575D01*
X145048473Y-146171361D01*
X144996600Y-146164332D01*
X144941090Y-146146372D01*
X144933723Y-146143412D01*
X144843138Y-146096119D01*
X144765842Y-146033887D01*
X144701695Y-145956601D01*
X144685128Y-145929607D01*
X144655827Y-145871586D01*
X144625106Y-145799616D01*
X144594345Y-145717252D01*
X144564926Y-145628051D01*
X144538230Y-145535571D01*
X144535141Y-145523969D01*
X144522335Y-145473452D01*
X144512756Y-145429261D01*
X144505647Y-145386129D01*
X144500255Y-145338792D01*
X144495824Y-145281985D01*
X144491598Y-145210443D01*
X144491518Y-145208960D01*
X144484100Y-145079410D01*
X144476889Y-144967657D01*
X144469918Y-144874144D01*
X144463225Y-144799311D01*
X144456845Y-144743600D01*
X144450814Y-144707452D01*
X144449904Y-144703677D01*
X144438744Y-144670224D01*
X144421277Y-144628808D01*
X144400868Y-144587505D01*
X144385462Y-144557067D01*
X144361325Y-144505108D01*
X144333770Y-144442363D01*
X144304482Y-144372970D01*
X144275142Y-144301066D01*
X144247431Y-144230789D01*
X144223034Y-144166276D01*
X144203632Y-144111666D01*
X144190906Y-144071097D01*
X144187625Y-144058862D01*
X144173684Y-144000905D01*
X144161096Y-143939688D01*
X144150863Y-143880846D01*
X144143984Y-143830014D01*
X144141462Y-143792824D01*
X144144339Y-143767242D01*
X144156070Y-143742513D01*
X144180280Y-143713292D01*
X144183208Y-143710174D01*
X144208727Y-143686246D01*
X144230487Y-143674675D01*
X144255339Y-143671663D01*
X144261784Y-143671905D01*
X144301655Y-143684671D01*
X144338301Y-143716036D01*
X144370709Y-143764870D01*
X144397862Y-143830045D01*
X144397905Y-143830174D01*
X144416109Y-143881089D01*
X144438102Y-143936986D01*
X144459133Y-143985787D01*
X144464614Y-143997954D01*
X144482809Y-144040331D01*
X144504837Y-144093685D01*
X144528403Y-144152403D01*
X144551213Y-144210876D01*
X144556248Y-144223947D01*
X144592650Y-144314829D01*
X144625727Y-144390909D01*
X144654943Y-144451076D01*
X144679764Y-144494218D01*
X144699656Y-144519224D01*
X144714027Y-144530230D01*
X144728243Y-144531462D01*
X144750070Y-144521835D01*
X144751045Y-144521322D01*
X144773698Y-144504423D01*
X144786759Y-144485806D01*
X144787177Y-144484388D01*
X144789977Y-144455675D01*
X144787745Y-144412528D01*
X144781035Y-144359387D01*
X144770396Y-144300693D01*
X144756379Y-144240887D01*
X144751214Y-144220652D01*
X144740681Y-144174377D01*
X144731183Y-144124340D01*
X144722543Y-144068736D01*
X144714584Y-144005762D01*
X144707130Y-143933614D01*
X144700002Y-143850487D01*
X144693025Y-143754576D01*
X144686021Y-143644078D01*
X144678814Y-143517189D01*
X144671228Y-143372103D01*
X144668639Y-143319195D01*
X144666158Y-143259442D01*
X144665103Y-143214260D01*
X144665539Y-143180492D01*
X144667530Y-143154984D01*
X144671141Y-143134577D01*
X144676435Y-143116117D01*
X144680502Y-143104787D01*
X144706539Y-143057209D01*
X144740278Y-143025846D01*
X144779447Y-143011633D01*
X144821775Y-143015508D01*
X144864990Y-143038406D01*
X144871848Y-143044067D01*
X144893316Y-143069173D01*
X144911597Y-143104458D01*
X144927558Y-143152379D01*
X144942067Y-143215391D01*
X144955993Y-143295953D01*
X144963174Y-143342330D01*
X144973639Y-143408948D01*
X144982265Y-143461797D01*
X144989764Y-143504686D01*
X144996851Y-143541424D01*
X145004236Y-143575823D01*
X145012634Y-143611693D01*
X145022756Y-143652843D01*
X145032449Y-143695157D01*
X145042467Y-143747742D01*
X145049288Y-143794409D01*
X145051807Y-143828485D01*
X145053258Y-143870251D01*
X145057532Y-143925515D01*
X145063966Y-143987026D01*
X145071891Y-144049541D01*
X145080640Y-144107815D01*
X145089545Y-144156604D01*
X145097937Y-144190664D01*
X145111039Y-144226183D01*
X145131942Y-144265051D01*
X145153718Y-144288188D01*
X145174818Y-144294703D01*
X145193695Y-144283709D01*
X145208800Y-144254317D01*
X145210053Y-144250477D01*
X145213225Y-144240193D01*
X145215793Y-144229479D01*
X145217795Y-144216378D01*
X145219272Y-144198932D01*
X145220264Y-144175184D01*
X145220810Y-144143176D01*
X145220952Y-144100950D01*
X145220728Y-144046548D01*
X145220178Y-143978013D01*
X145219344Y-143893386D01*
X145218264Y-143790710D01*
X145217927Y-143752864D01*
X145217604Y-143668376D01*
X145217847Y-143587032D01*
X145218614Y-143512204D01*
X145219861Y-143447265D01*
X145221548Y-143395587D01*
X145223632Y-143360541D01*
X145224735Y-143348058D01*
X145229297Y-143296180D01*
X145234801Y-143233260D01*
X145240651Y-143166126D01*
X145246251Y-143101607D01*
X145252691Y-143034333D01*
X145259760Y-142983078D01*
X145268745Y-142946138D01*
X145281031Y-142920651D01*
X145298003Y-142903760D01*
X145321048Y-142892604D01*
X145351552Y-142884324D01*
X145371746Y-142881358D01*
X145419900Y-142887342D01*
G37*
%TD*%
D10*
%TO.P,,1*%
%TO.N,N/C*%
X100584000Y-145796000D03*
%TD*%
%TO.P,,1*%
%TO.N,N/C*%
X134366000Y-120396000D03*
%TD*%
%TO.P,,1*%
%TO.N,N/C*%
X162306000Y-97536000D03*
%TD*%
%TO.P,REF\u002A\u002A,1*%
%TO.N,N/C*%
X167386000Y-143764000D03*
%TD*%
D11*
%TO.P,,1*%
%TO.N,RST*%
X164197804Y-90148758D03*
%TO.P,,2*%
%TO.N,GND*%
X160797804Y-90148758D03*
%TD*%
D12*
%TO.P,S9,1*%
%TO.N,P10*%
X178434717Y-124539275D03*
%TO.P,S9,2*%
%TO.N,GND*%
X166884717Y-126739275D03*
%TD*%
D13*
%TO.P,REF\u002A\u002A,1*%
%TO.N,GND*%
X155300735Y-95628395D03*
%TD*%
D14*
%TO.P,REF\u002A\u002A,1*%
%TO.N,GND*%
X173660756Y-140853232D03*
X173660756Y-145453232D03*
%TO.P,REF\u002A\u002A,2*%
X174760756Y-145453232D03*
X174760756Y-140853232D03*
%TO.P,REF\u002A\u002A,3*%
%TO.N,P2*%
X178760756Y-145453232D03*
X178760756Y-140853232D03*
%TO.P,REF\u002A\u002A,4*%
%TO.N,VCC*%
X181760756Y-145453232D03*
X181760756Y-140853232D03*
%TD*%
D15*
%TO.P,S5,1*%
%TO.N,P8*%
X108943478Y-116150592D03*
%TO.P,S5,2*%
%TO.N,GND*%
X99405384Y-123025710D03*
%TD*%
%TO.P,S1,1*%
%TO.N,P6*%
X143811350Y-100171698D03*
%TO.P,S1,2*%
%TO.N,GND*%
X134273256Y-107046816D03*
%TD*%
D16*
%TO.P,,1*%
%TO.N,pos*%
X165354000Y-120638000D03*
%TO.P,,2*%
%TO.N,GND*%
X165354000Y-119138000D03*
%TD*%
D17*
%TO.P,S2,1*%
%TO.N,P6*%
X149495259Y-108279182D03*
X140432181Y-112505365D03*
%TO.P,S2,2*%
%TO.N,GND*%
X145851219Y-112295520D03*
X145851219Y-112295520D03*
%TD*%
%TO.P,S6,1*%
%TO.N,P8*%
X105564309Y-128484259D03*
X114627387Y-124258076D03*
%TO.P,S6,2*%
%TO.N,GND*%
X110983347Y-128274414D03*
X110983347Y-128274414D03*
%TD*%
D18*
%TO.P,MCU1,*%
%TO.N,*%
X169317718Y-117459276D03*
X169317718Y-107299276D03*
D19*
X181509718Y-117459276D03*
D20*
X182779718Y-89519276D03*
D18*
X169317718Y-99679276D03*
X169317718Y-114919276D03*
D21*
X168809718Y-104759276D03*
D20*
X182779718Y-114919276D03*
D22*
X181001718Y-114919276D03*
X181001718Y-99679276D03*
X181001718Y-97139276D03*
D18*
X169317718Y-89519276D03*
D22*
X181001718Y-89519276D03*
D19*
X181509718Y-112379276D03*
D20*
X167539718Y-104759276D03*
D19*
X181509718Y-89519276D03*
D22*
X181001718Y-92059276D03*
D19*
X181509718Y-107299276D03*
D21*
X168809718Y-117459276D03*
D20*
X182779718Y-94599276D03*
D21*
X168809718Y-107299276D03*
X168809718Y-99679276D03*
D18*
X169317718Y-97139276D03*
D20*
X182779718Y-112379276D03*
D18*
X169317718Y-104759276D03*
D19*
X181509718Y-102219276D03*
D20*
X167539718Y-114919276D03*
D21*
X168809718Y-89519276D03*
D22*
X181001718Y-94599276D03*
X181001718Y-117459276D03*
D18*
X169317718Y-92059276D03*
X169317718Y-102219276D03*
X169317718Y-112379276D03*
D19*
X181509718Y-94599276D03*
D20*
X182779718Y-92059276D03*
D22*
X181001718Y-112379276D03*
D18*
X169317718Y-109839276D03*
D23*
X167539718Y-89519276D03*
D20*
X182779718Y-104759276D03*
X167539718Y-94599276D03*
X167539718Y-92059276D03*
D19*
X181509718Y-92059276D03*
D22*
X181001718Y-109839276D03*
D20*
X182779718Y-109839276D03*
X167539718Y-107299276D03*
D21*
X168809718Y-92059276D03*
D20*
X167539718Y-99679276D03*
D22*
X181001718Y-104759276D03*
D20*
X182779718Y-107299276D03*
D22*
X181001718Y-102219276D03*
D21*
X168809718Y-112379276D03*
D20*
X167539718Y-89519276D03*
D18*
X169317718Y-94599276D03*
D20*
X167539718Y-102219276D03*
X182779718Y-102219276D03*
D19*
X181509718Y-114919276D03*
D21*
X168809718Y-97139276D03*
X168809718Y-94599276D03*
D20*
X167539718Y-117459276D03*
X182779718Y-97139276D03*
D19*
X181509718Y-104759276D03*
D20*
X167539718Y-112379276D03*
X182779718Y-117459276D03*
D19*
X181509718Y-109839276D03*
D20*
X167539718Y-97139276D03*
D21*
X168809718Y-109839276D03*
D22*
X181001718Y-107299276D03*
D19*
X181509718Y-99679276D03*
D20*
X167539718Y-109839276D03*
D21*
X168809718Y-102219276D03*
D20*
X182779718Y-99679276D03*
D19*
X181509718Y-97139276D03*
D21*
X168809718Y-114919276D03*
D24*
%TO.P,MCU1,1*%
%TO.N,RAW*%
X179985718Y-89519276D03*
D25*
X175921718Y-89519276D03*
D26*
X175921718Y-89519276D03*
D25*
%TO.P,MCU1,2*%
%TO.N,GND*%
X175921718Y-92059276D03*
D26*
X175921718Y-92059276D03*
D24*
X179985718Y-92059276D03*
D25*
%TO.P,MCU1,3*%
%TO.N,RST*%
X175921718Y-94599276D03*
D24*
X179985718Y-94599276D03*
D26*
X175921718Y-94599276D03*
%TO.P,MCU1,4*%
%TO.N,VCC*%
X175921718Y-97139276D03*
D25*
X175921718Y-97139276D03*
D24*
X179985718Y-97139276D03*
D25*
%TO.P,MCU1,5*%
%TO.N,P21*%
X175921718Y-99679276D03*
D24*
X179985718Y-99679276D03*
D26*
X175921718Y-99679276D03*
%TO.P,MCU1,6*%
%TO.N,P20*%
X175921718Y-102219276D03*
D25*
X175921718Y-102219276D03*
D24*
X179985718Y-102219276D03*
D26*
%TO.P,MCU1,7*%
%TO.N,P19*%
X175921718Y-104759276D03*
D24*
X179985718Y-104759276D03*
D25*
X175921718Y-104759276D03*
%TO.P,MCU1,8*%
%TO.N,P18*%
X175921718Y-107299276D03*
D24*
X179985718Y-107299276D03*
D26*
X175921718Y-107299276D03*
%TO.P,MCU1,9*%
%TO.N,P15*%
X175921718Y-109839276D03*
D25*
X175921718Y-109839276D03*
D24*
X179985718Y-109839276D03*
%TO.P,MCU1,10*%
%TO.N,P14*%
X179985718Y-112379276D03*
D25*
X175921718Y-112379276D03*
D26*
X175921718Y-112379276D03*
D25*
%TO.P,MCU1,11*%
%TO.N,P16*%
X175921718Y-114919276D03*
D24*
X179985718Y-114919276D03*
D26*
X175921718Y-114919276D03*
D24*
%TO.P,MCU1,12*%
%TO.N,P10*%
X179985718Y-117459276D03*
D25*
X175921718Y-117459276D03*
D26*
X175921718Y-117459276D03*
D27*
%TO.P,MCU1,13*%
%TO.N,P9*%
X170333718Y-117459276D03*
D26*
X174397718Y-117459276D03*
D28*
X174397718Y-117459276D03*
D27*
%TO.P,MCU1,14*%
%TO.N,P8*%
X170333718Y-114919276D03*
D28*
X174397718Y-114919276D03*
D26*
X174397718Y-114919276D03*
D28*
%TO.P,MCU1,15*%
%TO.N,P7*%
X174397718Y-112379276D03*
D26*
X174397718Y-112379276D03*
D27*
X170333718Y-112379276D03*
%TO.P,MCU1,16*%
%TO.N,P6*%
X170333718Y-109839276D03*
D26*
X174397718Y-109839276D03*
D28*
X174397718Y-109839276D03*
%TO.P,MCU1,17*%
%TO.N,P5*%
X174397718Y-107299276D03*
D26*
X174397718Y-107299276D03*
D27*
X170333718Y-107299276D03*
D28*
%TO.P,MCU1,18*%
%TO.N,P4*%
X174397718Y-104759276D03*
D27*
X170333718Y-104759276D03*
D26*
X174397718Y-104759276D03*
D28*
%TO.P,MCU1,19*%
%TO.N,P3*%
X174397718Y-102219276D03*
D26*
X174397718Y-102219276D03*
D27*
X170333718Y-102219276D03*
%TO.P,MCU1,20*%
%TO.N,P2*%
X170333718Y-99679276D03*
D26*
X174397718Y-99679276D03*
D28*
X174397718Y-99679276D03*
%TO.P,MCU1,21*%
%TO.N,GND*%
X174397718Y-97139276D03*
D26*
X174397718Y-97139276D03*
D27*
X170333718Y-97139276D03*
D28*
%TO.P,MCU1,22*%
X174397718Y-94599276D03*
D26*
X174397718Y-94599276D03*
D27*
X170333718Y-94599276D03*
D28*
%TO.P,MCU1,23*%
%TO.N,P0*%
X174397718Y-92059276D03*
D27*
X170333718Y-92059276D03*
D26*
X174397718Y-92059276D03*
%TO.P,MCU1,24*%
%TO.N,P1*%
X174397718Y-89519276D03*
D27*
X170333718Y-89519276D03*
D28*
X174397718Y-89519276D03*
%TD*%
D17*
%TO.P,S8,1*%
%TO.N,P9*%
X98686407Y-135749698D03*
X89623329Y-139975881D03*
%TO.P,S8,2*%
%TO.N,GND*%
X95042367Y-139766036D03*
X95042367Y-139766036D03*
%TD*%
%TO.P,S10,1*%
%TO.N,P10*%
X170159717Y-134289275D03*
X180159717Y-134289275D03*
%TO.P,S10,2*%
%TO.N,GND*%
X175159717Y-136389275D03*
X175159717Y-136389275D03*
%TD*%
D29*
%TO.P,,*%
%TO.N,*%
X156992105Y-91138121D03*
X156992105Y-88928121D03*
X149692105Y-88928121D03*
X149692105Y-91138121D03*
D30*
%TO.P,,1*%
%TO.N,pos*%
X155592105Y-91788121D03*
%TO.P,,2*%
%TO.N,RAW*%
X152592105Y-91788121D03*
%TO.P,,3*%
%TO.N,N/C*%
X151092105Y-91788121D03*
%TD*%
D13*
%TO.P,REF\u002A\u002A,1*%
%TO.N,RST*%
X162608754Y-92621231D03*
%TD*%
D15*
%TO.P,S3,1*%
%TO.N,P7*%
X124327984Y-104066641D03*
%TO.P,S3,2*%
%TO.N,GND*%
X114789890Y-110941759D03*
%TD*%
%TO.P,S7,1*%
%TO.N,P9*%
X93002498Y-127642214D03*
%TO.P,S7,2*%
%TO.N,GND*%
X83464404Y-134517332D03*
%TD*%
D13*
%TO.P,REF\u002A\u002A,1*%
%TO.N,pos*%
X153210756Y-94653230D03*
%TD*%
D17*
%TO.P,S4,1*%
%TO.N,P7*%
X120948815Y-116400308D03*
X130011893Y-112174125D03*
%TO.P,S4,2*%
%TO.N,GND*%
X126367853Y-116190463D03*
X126367853Y-116190463D03*
%TD*%
D31*
%TO.N,pos*%
X181912757Y-120053231D03*
%TD*%
D32*
%TO.N,GND*%
X166866000Y-120650000D02*
X165354000Y-119138000D01*
X167640000Y-120650000D02*
X166866000Y-120650000D01*
X168656000Y-119634000D02*
X167640000Y-120650000D01*
X169164000Y-119634000D02*
X168656000Y-119634000D01*
X170180000Y-120650000D02*
X169164000Y-119634000D01*
X170942000Y-120650000D02*
X170180000Y-120650000D01*
X171704000Y-119888000D02*
X170942000Y-120650000D01*
X172466000Y-119888000D02*
X171704000Y-119888000D01*
X174244000Y-120650000D02*
X173228000Y-120650000D01*
X175006000Y-119888000D02*
X174244000Y-120650000D01*
X175260000Y-119888000D02*
X175006000Y-119888000D01*
X175260000Y-121920000D02*
X175260000Y-119888000D01*
X173228000Y-120650000D02*
X172466000Y-119888000D01*
X175171231Y-121831231D02*
X175260000Y-121920000D01*
X170242759Y-121831231D02*
X175171231Y-121831231D01*
X166884715Y-125189274D02*
X170242759Y-121831231D01*
X166884716Y-126739274D02*
X166884715Y-125189274D01*
X134453617Y-106962711D02*
X137573926Y-108098410D01*
X175090317Y-132695404D02*
X175159720Y-132764798D01*
X119880624Y-111024034D02*
X121230810Y-111515461D01*
X139875949Y-107024961D02*
X141226137Y-107516388D01*
X87910938Y-134721849D02*
X85608916Y-135795300D01*
X127142229Y-98949894D02*
X130180150Y-100055606D01*
X174142966Y-140628374D02*
X174760756Y-140853232D01*
X174647847Y-90785403D02*
X175921721Y-92059276D01*
X95042369Y-139766035D02*
X92050351Y-138677030D01*
X166884721Y-130331806D02*
X169248319Y-132695401D01*
X160797806Y-92123891D02*
X160797804Y-90148760D01*
X114789892Y-110941758D02*
X114850616Y-110913447D01*
X83464406Y-134517329D02*
X82368554Y-132167273D01*
X112146821Y-111267265D02*
X113239198Y-111664861D01*
X173660757Y-136433232D02*
X173784756Y-136309231D01*
X121230810Y-111515461D02*
X122840989Y-114968492D01*
X105683969Y-123671295D02*
X107185934Y-126892270D01*
X98564893Y-117600625D02*
X112146821Y-111267265D01*
X175159720Y-132764798D02*
X175159714Y-136389273D01*
X164168314Y-88245402D02*
X165946316Y-90023405D01*
X132971120Y-106040863D02*
X133078468Y-106271068D01*
X165946320Y-90785401D02*
X174647847Y-90785403D01*
X137573926Y-108098410D02*
X139875949Y-107024961D01*
X159392512Y-93529188D02*
X160797806Y-92123891D01*
X174760757Y-145453233D02*
X174760755Y-140853230D01*
X174397718Y-97139276D02*
X174397718Y-94599276D01*
X173660755Y-140853232D02*
X174142966Y-140628374D01*
X122915305Y-114933839D02*
X126367856Y-116190463D01*
X114789892Y-110941758D02*
X113049972Y-107210493D01*
X134273258Y-107046817D02*
X133974459Y-106406049D01*
X90611316Y-135704707D02*
X87910938Y-134721849D01*
X101924413Y-124023116D02*
X103996232Y-123057012D01*
X92050351Y-138677030D02*
X92006801Y-138697335D01*
X173660755Y-140853230D02*
X173660757Y-136433232D01*
X160797806Y-88567908D02*
X161120322Y-88245401D01*
X98137582Y-122564270D02*
X99405384Y-123025712D01*
X173660756Y-145453233D02*
X174142966Y-145228374D01*
X173784756Y-136309231D02*
X175079674Y-136309231D01*
X155300735Y-95628395D02*
X157399943Y-93529186D01*
X113790499Y-105175906D02*
X127142229Y-98949894D01*
X165946316Y-90023405D02*
X165946320Y-90785401D01*
X99405384Y-123025712D02*
X99450622Y-123122731D01*
X117808805Y-111990138D02*
X119880624Y-111024034D01*
X157399943Y-93529186D02*
X159392512Y-93529188D01*
X175079674Y-136309231D02*
X175159716Y-136389274D01*
X134273258Y-107046817D02*
X134453617Y-106962711D01*
X169248319Y-132695401D02*
X175090317Y-132695404D01*
X133974459Y-106406049D02*
X132971120Y-106040863D01*
X141226137Y-107516388D02*
X142964792Y-111244945D01*
X83354797Y-129457595D02*
X98137582Y-122564270D01*
X103996232Y-123057012D02*
X105683969Y-123671295D01*
X142964792Y-111244945D02*
X145851221Y-112295521D01*
X99450622Y-123122731D02*
X101924413Y-124023116D01*
X166884719Y-126739279D02*
X166884721Y-130331806D01*
X160797807Y-90148764D02*
X160797806Y-88567908D01*
X113049972Y-107210493D02*
X113790499Y-105175906D01*
X122840989Y-114968492D02*
X122915305Y-114933839D01*
X161120322Y-88245401D02*
X164168314Y-88245402D01*
X113239198Y-111664861D02*
X114789892Y-110941758D01*
X92006801Y-138697335D02*
X90611316Y-135704707D01*
X82368554Y-132167273D02*
X83354797Y-129457595D01*
X107185934Y-126892270D02*
X110983347Y-128274416D01*
X174142966Y-145228374D02*
X174760757Y-145453231D01*
X99405384Y-123025712D02*
X97824364Y-119635208D01*
X173660755Y-140853229D02*
X174760755Y-140853230D01*
X85608916Y-135795300D02*
X83743775Y-135116446D01*
X130180150Y-100055606D02*
X132971120Y-106040863D01*
X114850616Y-110913447D02*
X117808805Y-111990138D01*
X97824364Y-119635208D02*
X98564893Y-117600625D01*
%TO.N,P9*%
X98057575Y-134401159D02*
X98686412Y-135749698D01*
X94822812Y-141868339D02*
X96793952Y-140949178D01*
X96793952Y-140949178D02*
X98686412Y-135749698D01*
X94095371Y-132959031D02*
X98057575Y-134401159D01*
X92699886Y-129966405D02*
X94095371Y-132959031D01*
X111352290Y-135749695D02*
X98686410Y-135749699D01*
X174397719Y-117459276D02*
X174397718Y-117424393D01*
X93307646Y-128296598D02*
X92699886Y-129966405D01*
X93002502Y-127642212D02*
X93307646Y-128296598D01*
X89623333Y-139975881D02*
X94822812Y-141868339D01*
X143304754Y-125133231D02*
X121968754Y-125133231D01*
X173108512Y-116135186D02*
X152302799Y-116135186D01*
X152302799Y-116135186D02*
X143304754Y-125133231D01*
X121968754Y-125133231D02*
X111352290Y-135749695D01*
X174397718Y-117424393D02*
X173108512Y-116135186D01*
%TO.N,RAW*%
X175921718Y-89330803D02*
X175921717Y-89519274D01*
X152592102Y-91788112D02*
X153513602Y-91788121D01*
X154262315Y-87737402D02*
X174328315Y-87737401D01*
X153513602Y-91788121D02*
X154008320Y-91293403D01*
X154008319Y-87991402D02*
X154262315Y-87737402D01*
X174328315Y-87737401D02*
X175921718Y-89330803D01*
X154008320Y-91293403D02*
X154008319Y-87991402D01*
%TO.N,RST*%
X175344318Y-93325402D02*
X175921716Y-93902808D01*
X164197808Y-90148756D02*
X164168320Y-90178250D01*
X164168320Y-92563398D02*
X164930315Y-93325398D01*
X164197805Y-90148760D02*
X162608755Y-91737808D01*
X164930315Y-93325398D02*
X175344318Y-93325402D01*
X162608755Y-91737808D02*
X162608754Y-92621231D01*
X175921716Y-93902808D02*
X175921721Y-94599279D01*
X164168320Y-90178250D02*
X164168320Y-92563398D01*
%TO.N,VCC*%
X184424755Y-140853233D02*
X181760756Y-140853232D01*
X185758314Y-139575672D02*
X184452756Y-140881233D01*
X175921716Y-97139278D02*
X177195592Y-95865402D01*
X181760757Y-145453230D02*
X181760756Y-140853235D01*
X185758321Y-96881404D02*
X185758314Y-139575672D01*
X177195592Y-95865402D02*
X184742312Y-95865399D01*
X184452756Y-140881233D02*
X184424755Y-140853233D01*
X184742312Y-95865399D02*
X185758321Y-96881404D01*
%TO.N,P10*%
X177630319Y-131759874D02*
X180159720Y-134289268D01*
X178434716Y-119972274D02*
X175921717Y-117459273D01*
X178434718Y-124539278D02*
X178434716Y-119972274D01*
X178434718Y-124539278D02*
X178420448Y-124539273D01*
X178420448Y-124539273D02*
X177630319Y-125329403D01*
X177630319Y-125329403D02*
X177630319Y-131759874D01*
%TO.N,P2*%
X178760753Y-145453234D02*
X178760753Y-140853238D01*
X184198754Y-139611230D02*
X178864756Y-139611231D01*
X178864756Y-139611231D02*
X178760755Y-139715232D01*
X184996317Y-98405402D02*
X185250320Y-98659404D01*
X175671592Y-98405400D02*
X184996317Y-98405402D01*
X185250322Y-138559668D02*
X184198754Y-139611230D01*
X185250320Y-98659404D02*
X185250322Y-138559668D01*
X178760755Y-139715232D02*
X178760757Y-140853231D01*
X174397716Y-99679275D02*
X175671592Y-98405400D01*
%TO.N,P6*%
X140432180Y-112505365D02*
X140432182Y-122514659D01*
X145823534Y-106942785D02*
X149495260Y-108279183D01*
X140432180Y-112505364D02*
X145333254Y-114289211D01*
X145333254Y-114289211D02*
X147711415Y-113180253D01*
X172854511Y-108515185D02*
X161230711Y-108515188D01*
X140432182Y-122514659D02*
X140510756Y-122593232D01*
X161230711Y-108515188D02*
X161170512Y-108515188D01*
X143811350Y-100171699D02*
X143612011Y-100099145D01*
X154588799Y-108515191D02*
X160722713Y-108515189D01*
X143612011Y-100099145D02*
X145008795Y-103094556D01*
X144579314Y-104274543D02*
X145823534Y-106942785D01*
X160722713Y-108515189D02*
X161170512Y-108515188D01*
X173073629Y-108515186D02*
X172854511Y-108515185D01*
X161170512Y-108515188D02*
X160916509Y-108515186D01*
X145008795Y-103094556D02*
X144579314Y-104274543D01*
X140510756Y-122593232D02*
X154588799Y-108515191D01*
X147711415Y-113180253D02*
X149495259Y-108279181D01*
X174397716Y-109839276D02*
X173073629Y-108515186D01*
X161230711Y-108515188D02*
X160722713Y-108515189D01*
%TO.N,P7*%
X125687768Y-118125148D02*
X128287057Y-116913076D01*
X128287057Y-116913076D02*
X130011894Y-112174129D01*
X126556687Y-110916537D02*
X130011894Y-112174129D01*
X141526755Y-123355231D02*
X153826800Y-111055187D01*
X153826800Y-111055187D02*
X173108512Y-111055185D01*
X124128646Y-103994088D02*
X125648808Y-107254081D01*
X174397718Y-112344392D02*
X174397719Y-112379276D01*
X120948817Y-121827291D02*
X122476756Y-123355231D01*
X122476756Y-123355231D02*
X141526755Y-123355231D01*
X173108512Y-111055185D02*
X174397718Y-112344392D01*
X124327987Y-104066639D02*
X124128646Y-103994088D01*
X120948814Y-116400308D02*
X125687768Y-118125148D01*
X120948815Y-116400309D02*
X120948817Y-121827291D01*
X125298130Y-108217548D02*
X126556687Y-110916537D01*
X125648808Y-107254081D02*
X125298130Y-108217548D01*
%TO.N,P8*%
X108943479Y-116150591D02*
X109508956Y-117363267D01*
X153064800Y-113595185D02*
X142401908Y-124258079D01*
X173108511Y-113595188D02*
X153064800Y-113595185D01*
X112781366Y-129329982D02*
X114627388Y-124258079D01*
X109508956Y-117363267D02*
X108999871Y-118761969D01*
X174397717Y-114919274D02*
X173108511Y-113630070D01*
X110636217Y-130330283D02*
X112781366Y-129329982D01*
X173108511Y-113630070D02*
X173108511Y-113595188D01*
X105564309Y-128484261D02*
X110636217Y-130330283D01*
X113993053Y-122897745D02*
X114627388Y-124258079D01*
X108999871Y-118761969D02*
X110288008Y-121524396D01*
X110288008Y-121524396D02*
X114001034Y-122875824D01*
X114001034Y-122875824D02*
X113993053Y-122897745D01*
X142401908Y-124258079D02*
X114627387Y-124258078D01*
%TO.N,pos*%
X153972754Y-94653231D02*
X153210756Y-94653230D01*
X184452756Y-106083232D02*
X184452757Y-120053233D01*
X164640754Y-106083232D02*
X184452756Y-106083232D01*
X153210756Y-94653230D02*
X164640754Y-106083232D01*
X155592106Y-93033882D02*
X153972754Y-94653231D01*
X184452757Y-120053233D02*
X181912757Y-120053231D01*
X155592106Y-91788122D02*
X155592106Y-93033882D01*
%TD*%
M02*
