M48
; DRILL file {KiCad (6.0.7)} date Tue Aug  9 03:43:14 2022
; FORMAT={-:-/ absolute / inch / decimal}
; #@! TF.CreationDate,2022-08-09T03:43:14+01:00
; #@! TF.GenerationSoftware,Kicad,Pcbnew,(6.0.7)
; #@! TF.FileFunction,NonPlated,1,2,NPTH
FMAT,2
INCH
; #@! TA.AperFunction,NonPlated,NPTH,ComponentDrill
T1C0.0354
; #@! TA.AperFunction,NonPlated,NPTH,ComponentDrill
T2C0.0591
; #@! TA.AperFunction,NonPlated,NPTH,ComponentDrill
T3C0.0670
; #@! TA.AperFunction,NonPlated,NPTH,ComponentDrill
T4C0.1181
; #@! TA.AperFunction,NonPlated,NPTH,ComponentDrill
T5C0.1350
%
G90
G05
T1
X5.978Y-3.5444
X5.978Y-3.5444
X6.0961Y-3.5444
X6.0961Y-3.5444
T2
X6.9433Y-5.636
X7.2189Y-5.636
T3
X3.4474Y-5.3836
X3.4474Y-5.3836
X3.8399Y-5.2006
X3.8399Y-5.2006
X4.075Y-4.9312
X4.075Y-4.9312
X4.4675Y-4.7481
X4.4675Y-4.7481
X4.6807Y-4.4554
X4.6807Y-4.4554
X5.0732Y-4.2724
X5.0732Y-4.2724
X5.4478Y-4.3021
X5.4478Y-4.3021
X5.8403Y-4.1191
X5.8403Y-4.1191
X6.6795Y-5.1374
X6.6795Y-5.1374
X7.1126Y-5.1374
X7.1126Y-5.1374
T4
X3.4029Y-5.2415
X3.5447Y-5.0798
X3.5447Y-5.0798
X3.7597Y-5.0751
X4.0305Y-4.789
X4.1723Y-4.6273
X4.1723Y-4.6273
X4.3873Y-4.6227
X4.6361Y-4.3133
X4.7779Y-4.1516
X4.7779Y-4.1516
X4.993Y-4.1469
X5.4032Y-4.16
X5.545Y-3.9983
X5.545Y-3.9983
X5.76Y-3.9936
X6.6992Y-4.9897
X6.8961Y-4.9031
X6.8961Y-4.9031
X7.0929Y-4.9897
T5
X3.6437Y-5.2921
X3.6437Y-5.2921
X4.2713Y-4.8397
X4.2713Y-4.8397
X4.8769Y-4.3639
X4.8769Y-4.3639
X5.644Y-4.2106
X5.644Y-4.2106
X6.8961Y-5.1374
X6.8961Y-5.1374
T0
M30
