M48
; DRILL file {KiCad (6.0.7)} date Tue Aug  9 03:43:14 2022
; FORMAT={-:-/ absolute / inch / decimal}
; #@! TF.CreationDate,2022-08-09T03:43:14+01:00
; #@! TF.GenerationSoftware,Kicad,Pcbnew,(6.0.7)
; #@! TF.FileFunction,Plated,1,2,PTH
FMAT,2
INCH
; #@! TA.AperFunction,Plated,PTH,ComponentDrill
T1C0.0118
; #@! TA.AperFunction,Plated,PTH,ViaDrill
T2C0.0157
; #@! TA.AperFunction,Plated,PTH,ComponentDrill
T3C0.0157
; #@! TA.AperFunction,Plated,PTH,ComponentDrill
T4C0.0276
; #@! TA.AperFunction,Plated,PTH,ComponentDrill
T5C0.0354
; #@! TA.AperFunction,Plated,PTH,ComponentDrill
T6C0.0433
; #@! TA.AperFunction,Plated,PTH,ComponentDrill
T7C0.0500
; #@! TA.AperFunction,Plated,PTH,ComponentDrill
T8C0.0866
%
G90
G05
T1
X6.0319Y-3.7265
X6.1142Y-3.7649
X6.4019Y-3.6465
T2
X7.1619Y-4.7265
T3
X6.8661Y-3.5244
X6.8661Y-3.6244
X6.8661Y-3.7244
X6.8661Y-3.8244
X6.8661Y-3.9244
X6.8661Y-4.0244
X6.8661Y-4.1244
X6.8661Y-4.2244
X6.8661Y-4.3244
X6.8661Y-4.4244
X6.8661Y-4.5244
X6.8661Y-4.6244
X6.9261Y-3.5244
X6.9261Y-3.6244
X6.9261Y-3.7244
X6.9261Y-3.8244
X6.9261Y-3.9244
X6.9261Y-4.0244
X6.9261Y-4.1244
X6.9261Y-4.2244
X6.9261Y-4.3244
X6.9261Y-4.4244
X6.9261Y-4.5244
X6.9261Y-4.6244
T4
X6.51Y-4.6905
X6.51Y-4.7495
T6
X6.5961Y-3.5244
X6.5961Y-3.5244
X6.5961Y-3.6244
X6.5961Y-3.7244
X6.5961Y-3.8244
X6.5961Y-3.9244
X6.5961Y-4.0244
X6.5961Y-4.1244
X6.5961Y-4.2244
X6.5961Y-4.3244
X6.5961Y-4.4244
X6.5961Y-4.5244
X6.5961Y-4.6244
X7.1961Y-3.5244
X7.1961Y-3.5244
X7.1961Y-3.6244
X7.1961Y-3.7244
X7.1961Y-3.8244
X7.1961Y-3.9244
X7.1961Y-4.0244
X7.1961Y-4.1244
X7.1961Y-4.2244
X7.1961Y-4.3244
X7.1961Y-4.4244
X7.1961Y-4.5244
X7.1961Y-4.6244
T7
X3.5285Y-5.5109
X3.7418Y-5.5026
X3.7418Y-5.5026
X3.8853Y-5.3445
X4.1561Y-5.0584
X4.3694Y-5.0502
X4.3694Y-5.0502
X4.5129Y-4.8921
X4.7618Y-4.5827
X4.9751Y-4.5744
X4.9751Y-4.5744
X5.1186Y-4.4163
X5.5288Y-4.4293
X5.7422Y-4.4211
X5.7422Y-4.4211
X5.8856Y-4.263
X6.6992Y-5.287
X6.8961Y-5.3697
X6.8961Y-5.3697
X7.0929Y-5.287
T8
X3.96Y-5.74
X5.29Y-4.74
X6.39Y-3.84
X6.59Y-5.66
T5
G00X6.8488Y-5.5454
M15
G01X6.8252Y-5.5454
M16
G05
G00X6.8488Y-5.7265
M15
G01X6.8252Y-5.7265
M16
G05
G00X6.8922Y-5.5454
M15
G01X6.8685Y-5.5454
M16
G05
G00X6.8922Y-5.7265
M15
G01X6.8685Y-5.7265
M16
G05
G00X7.0496Y-5.5454
M15
G01X7.026Y-5.5454
M16
G05
G00X7.0496Y-5.7265
M15
G01X7.026Y-5.7265
M16
G05
G00X7.1677Y-5.5454
M15
G01X7.1441Y-5.5454
M16
G05
G00X7.1677Y-5.7265
M15
G01X7.1441Y-5.7265
M16
G05
T0
M30
