%TF.GenerationSoftware,KiCad,Pcbnew,(6.0.7)*%
%TF.CreationDate,2022-08-09T03:43:16+01:00*%
%TF.ProjectId,digitsbest,64696769-7473-4626-9573-742e6b696361,v1.0.0*%
%TF.SameCoordinates,Original*%
%TF.FileFunction,Soldermask,Bot*%
%TF.FilePolarity,Negative*%
%FSLAX46Y46*%
G04 Gerber Fmt 4.6, Leading zero omitted, Abs format (unit mm)*
G04 Created by KiCad (PCBNEW (6.0.7)) date 2022-08-09 03:43:16*
%MOMM*%
%LPD*%
G01*
G04 APERTURE LIST*
G04 Aperture macros list*
%AMRoundRect*
0 Rectangle with rounded corners*
0 $1 Rounding radius*
0 $2 $3 $4 $5 $6 $7 $8 $9 X,Y pos of 4 corners*
0 Add a 4 corners polygon primitive as box body*
4,1,4,$2,$3,$4,$5,$6,$7,$8,$9,$2,$3,0*
0 Add four circle primitives for the rounded corners*
1,1,$1+$1,$2,$3*
1,1,$1+$1,$4,$5*
1,1,$1+$1,$6,$7*
1,1,$1+$1,$8,$9*
0 Add four rect primitives between the rounded corners*
20,1,$1+$1,$2,$3,$4,$5,0*
20,1,$1+$1,$4,$5,$6,$7,0*
20,1,$1+$1,$6,$7,$8,$9,0*
20,1,$1+$1,$8,$9,$2,$3,0*%
%AMFreePoly0*
4,1,14,0.635355,0.435355,0.650000,0.400000,0.650000,0.200000,0.635355,0.164645,0.035355,-0.435355,0.000000,-0.450000,-0.035355,-0.435355,-0.635355,0.164645,-0.650000,0.200000,-0.650000,0.400000,-0.635355,0.435355,-0.600000,0.450000,0.600000,0.450000,0.635355,0.435355,0.635355,0.435355,$1*%
%AMFreePoly1*
4,1,16,0.635355,1.035355,0.650000,1.000000,0.650000,-0.250000,0.635355,-0.285355,0.600000,-0.300000,-0.600000,-0.300000,-0.635355,-0.285355,-0.650000,-0.250000,-0.650000,1.000000,-0.635355,1.035355,-0.600000,1.050000,-0.564645,1.035355,0.000000,0.470710,0.564645,1.035355,0.600000,1.050000,0.635355,1.035355,0.635355,1.035355,$1*%
G04 Aperture macros list end*
%ADD10C,0.250000*%
%ADD11C,0.100000*%
%ADD12C,3.900000*%
%ADD13RoundRect,0.050000X0.118922X-0.954389X0.856158X-0.438170X-0.118922X0.954389X-0.856158X0.438170X0*%
%ADD14C,1.801800*%
%ADD15C,3.100000*%
%ADD16C,3.529000*%
%ADD17RoundRect,0.050000X-1.300000X-1.300000X1.300000X-1.300000X1.300000X1.300000X-1.300000X1.300000X0*%
%ADD18C,1.600000*%
%ADD19O,2.300000X1.700000*%
%ADD20RoundRect,0.050000X-0.628796X-1.727604X1.727604X-0.628796X0.628796X1.727604X-1.727604X0.628796X0*%
%ADD21C,1.100000*%
%ADD22C,2.132000*%
%ADD23FreePoly0,90.000000*%
%ADD24C,1.700000*%
%ADD25FreePoly0,270.000000*%
%ADD26RoundRect,0.050000X-0.800000X0.800000X-0.800000X-0.800000X0.800000X-0.800000X0.800000X0.800000X0*%
%ADD27FreePoly1,90.000000*%
%ADD28FreePoly1,270.000000*%
%ADD29RoundRect,0.050000X0.180145X0.614449X-0.639007X0.040873X-0.180145X-0.614449X0.639007X-0.040873X0*%
%ADD30C,1.000000*%
%ADD31RoundRect,0.050000X-0.143479X0.815116X-0.716886X0.413612X0.143479X-0.815116X0.716886X-0.413612X0*%
G04 APERTURE END LIST*
%TO.C,G\u002A\u002A\u002A*%
G36*
X161988448Y-142884324D02*
G01*
X162018952Y-142892604D01*
X162041997Y-142903760D01*
X162058969Y-142920651D01*
X162071255Y-142946138D01*
X162080240Y-142983078D01*
X162087309Y-143034333D01*
X162093749Y-143101607D01*
X162099349Y-143166126D01*
X162105199Y-143233260D01*
X162110703Y-143296180D01*
X162115265Y-143348058D01*
X162116368Y-143360541D01*
X162118452Y-143395587D01*
X162120139Y-143447265D01*
X162121386Y-143512204D01*
X162122153Y-143587032D01*
X162122396Y-143668376D01*
X162122073Y-143752864D01*
X162121736Y-143790710D01*
X162120656Y-143893386D01*
X162119822Y-143978013D01*
X162119272Y-144046548D01*
X162119048Y-144100950D01*
X162119190Y-144143176D01*
X162119736Y-144175184D01*
X162120728Y-144198932D01*
X162122205Y-144216378D01*
X162124207Y-144229479D01*
X162126775Y-144240193D01*
X162129947Y-144250477D01*
X162131200Y-144254317D01*
X162146305Y-144283709D01*
X162165182Y-144294703D01*
X162186282Y-144288188D01*
X162208058Y-144265051D01*
X162228961Y-144226183D01*
X162242063Y-144190664D01*
X162250455Y-144156604D01*
X162259360Y-144107815D01*
X162268109Y-144049541D01*
X162276034Y-143987026D01*
X162282468Y-143925515D01*
X162286742Y-143870251D01*
X162288193Y-143828485D01*
X162290712Y-143794409D01*
X162297533Y-143747742D01*
X162307551Y-143695157D01*
X162317244Y-143652843D01*
X162327366Y-143611693D01*
X162335764Y-143575823D01*
X162343149Y-143541424D01*
X162350236Y-143504686D01*
X162357735Y-143461797D01*
X162366361Y-143408948D01*
X162376826Y-143342330D01*
X162384007Y-143295953D01*
X162397933Y-143215391D01*
X162412442Y-143152379D01*
X162428403Y-143104458D01*
X162446684Y-143069173D01*
X162468152Y-143044067D01*
X162475010Y-143038406D01*
X162518225Y-143015508D01*
X162560553Y-143011633D01*
X162599722Y-143025846D01*
X162633461Y-143057209D01*
X162659498Y-143104787D01*
X162663565Y-143116117D01*
X162668859Y-143134577D01*
X162672470Y-143154984D01*
X162674461Y-143180492D01*
X162674897Y-143214260D01*
X162673842Y-143259442D01*
X162671361Y-143319195D01*
X162668772Y-143372103D01*
X162661186Y-143517189D01*
X162653979Y-143644078D01*
X162646975Y-143754576D01*
X162639998Y-143850487D01*
X162632870Y-143933614D01*
X162625416Y-144005762D01*
X162617457Y-144068736D01*
X162608817Y-144124340D01*
X162599319Y-144174377D01*
X162588786Y-144220652D01*
X162583621Y-144240887D01*
X162569604Y-144300693D01*
X162558965Y-144359387D01*
X162552255Y-144412528D01*
X162550023Y-144455675D01*
X162552823Y-144484388D01*
X162553241Y-144485806D01*
X162566302Y-144504423D01*
X162588955Y-144521322D01*
X162589930Y-144521835D01*
X162611757Y-144531462D01*
X162625973Y-144530230D01*
X162640344Y-144519224D01*
X162660236Y-144494218D01*
X162685057Y-144451076D01*
X162714273Y-144390909D01*
X162747350Y-144314829D01*
X162783752Y-144223947D01*
X162788787Y-144210876D01*
X162811597Y-144152403D01*
X162835163Y-144093685D01*
X162857191Y-144040331D01*
X162875386Y-143997954D01*
X162880867Y-143985787D01*
X162901898Y-143936986D01*
X162923891Y-143881089D01*
X162942095Y-143830174D01*
X162942138Y-143830045D01*
X162969291Y-143764870D01*
X163001699Y-143716036D01*
X163038345Y-143684671D01*
X163078216Y-143671905D01*
X163084661Y-143671663D01*
X163109513Y-143674675D01*
X163131273Y-143686246D01*
X163156792Y-143710174D01*
X163159720Y-143713292D01*
X163183930Y-143742513D01*
X163195661Y-143767242D01*
X163198538Y-143792824D01*
X163196016Y-143830014D01*
X163189137Y-143880846D01*
X163178904Y-143939688D01*
X163166316Y-144000905D01*
X163152375Y-144058862D01*
X163149094Y-144071097D01*
X163136368Y-144111666D01*
X163116966Y-144166276D01*
X163092569Y-144230789D01*
X163064858Y-144301066D01*
X163035518Y-144372970D01*
X163006230Y-144442363D01*
X162978675Y-144505108D01*
X162954538Y-144557067D01*
X162939132Y-144587505D01*
X162918723Y-144628808D01*
X162901256Y-144670224D01*
X162890096Y-144703677D01*
X162889186Y-144707452D01*
X162883155Y-144743600D01*
X162876775Y-144799311D01*
X162870082Y-144874144D01*
X162863111Y-144967657D01*
X162855900Y-145079410D01*
X162848482Y-145208960D01*
X162848402Y-145210443D01*
X162844176Y-145281985D01*
X162839745Y-145338792D01*
X162834353Y-145386129D01*
X162827244Y-145429261D01*
X162817665Y-145473452D01*
X162804859Y-145523969D01*
X162801770Y-145535571D01*
X162775074Y-145628051D01*
X162745655Y-145717252D01*
X162714894Y-145799616D01*
X162684173Y-145871586D01*
X162654872Y-145929607D01*
X162638305Y-145956601D01*
X162574158Y-146033887D01*
X162496862Y-146096119D01*
X162406277Y-146143412D01*
X162398910Y-146146372D01*
X162343400Y-146164332D01*
X162291527Y-146171361D01*
X162236693Y-146167575D01*
X162172302Y-146153091D01*
X162163144Y-146150502D01*
X162111069Y-146135632D01*
X162054725Y-146119716D01*
X162004774Y-146105762D01*
X161996388Y-146103444D01*
X161919668Y-146082285D01*
X161826321Y-146104619D01*
X161746876Y-146120268D01*
X161681297Y-146125436D01*
X161626458Y-146120201D01*
X161592920Y-146110440D01*
X161564720Y-146100235D01*
X161524709Y-146086483D01*
X161480151Y-146071667D01*
X161466006Y-146067070D01*
X161361651Y-146025131D01*
X161272453Y-145971108D01*
X161196733Y-145903731D01*
X161132816Y-145821730D01*
X161124246Y-145808258D01*
X161098785Y-145768480D01*
X161065284Y-145718001D01*
X161027451Y-145662316D01*
X160988995Y-145606919D01*
X160974515Y-145586417D01*
X160932560Y-145526228D01*
X160887575Y-145459734D01*
X160841582Y-145390108D01*
X160796605Y-145320518D01*
X160754666Y-145254135D01*
X160717787Y-145194130D01*
X160687992Y-145143673D01*
X160667304Y-145105933D01*
X160664944Y-145101226D01*
X160652263Y-145074134D01*
X160633957Y-145033304D01*
X160612109Y-144983462D01*
X160588802Y-144929334D01*
X160578948Y-144906149D01*
X160552948Y-144846785D01*
X160524482Y-144785206D01*
X160496588Y-144727780D01*
X160472300Y-144680876D01*
X160466876Y-144671057D01*
X160433143Y-144605063D01*
X160411632Y-144546448D01*
X160400393Y-144488463D01*
X160397449Y-144430705D01*
X160400338Y-144388297D01*
X160411046Y-144359437D01*
X160432631Y-144341441D01*
X160468151Y-144331627D01*
X160515038Y-144327548D01*
X160558833Y-144326532D01*
X160590737Y-144329134D01*
X160618738Y-144336693D01*
X160650000Y-144350158D01*
X160704726Y-144382847D01*
X160751849Y-144426574D01*
X160793270Y-144483798D01*
X160830889Y-144556975D01*
X160854056Y-144613865D01*
X160883180Y-144672964D01*
X160923288Y-144729427D01*
X160927715Y-144734581D01*
X160958874Y-144772206D01*
X160993501Y-144817108D01*
X161024236Y-144859738D01*
X161024963Y-144860798D01*
X161063131Y-144910353D01*
X161100531Y-144947474D01*
X161134700Y-144970033D01*
X161158823Y-144976177D01*
X161180729Y-144967648D01*
X161206137Y-144944966D01*
X161230953Y-144912485D01*
X161248223Y-144881083D01*
X161257393Y-144850133D01*
X161264920Y-144803694D01*
X161270657Y-144746229D01*
X161274457Y-144682201D01*
X161276170Y-144616073D01*
X161275648Y-144552309D01*
X161272744Y-144495372D01*
X161267310Y-144449723D01*
X161263165Y-144430962D01*
X161256260Y-144400027D01*
X161250871Y-144359971D01*
X161246766Y-144307966D01*
X161243712Y-144241187D01*
X161241773Y-144170860D01*
X161239913Y-144104534D01*
X161237377Y-144040432D01*
X161234394Y-143982994D01*
X161231195Y-143936659D01*
X161228013Y-143905867D01*
X161227997Y-143905755D01*
X161223763Y-143874307D01*
X161217885Y-143827685D01*
X161210938Y-143770597D01*
X161203496Y-143707754D01*
X161197477Y-143655657D01*
X161189794Y-143585756D01*
X161184630Y-143529698D01*
X161181826Y-143481499D01*
X161181219Y-143435176D01*
X161182649Y-143384743D01*
X161185954Y-143324218D01*
X161187787Y-143295515D01*
X161192136Y-143236382D01*
X161197005Y-143182492D01*
X161201972Y-143137744D01*
X161206613Y-143106039D01*
X161209730Y-143092889D01*
X161231068Y-143059098D01*
X161265493Y-143027368D01*
X161306374Y-143003158D01*
X161328335Y-142995257D01*
X161378674Y-142990668D01*
X161423613Y-143005065D01*
X161462545Y-143038008D01*
X161494866Y-143089059D01*
X161510593Y-143127507D01*
X161516573Y-143147949D01*
X161521515Y-143173209D01*
X161525642Y-143205896D01*
X161529179Y-143248622D01*
X161532350Y-143303997D01*
X161535379Y-143374632D01*
X161537907Y-143445574D01*
X161543408Y-143576389D01*
X161550493Y-143687809D01*
X161559205Y-143780386D01*
X161567290Y-143840730D01*
X161575351Y-143897874D01*
X161581932Y-143955893D01*
X161586330Y-144007807D01*
X161587847Y-144044991D01*
X161593282Y-144150335D01*
X161609524Y-144239708D01*
X161636800Y-144314120D01*
X161656192Y-144348430D01*
X161677759Y-144375739D01*
X161696090Y-144384113D01*
X161713617Y-144373804D01*
X161726610Y-144355768D01*
X161736233Y-144329004D01*
X161744344Y-144283788D01*
X161750894Y-144221622D01*
X161755830Y-144144008D01*
X161759101Y-144052448D01*
X161760657Y-143948445D01*
X161760445Y-143833500D01*
X161758416Y-143709117D01*
X161754516Y-143576797D01*
X161753828Y-143557996D01*
X161750819Y-143458006D01*
X161750147Y-143373814D01*
X161752075Y-143301316D01*
X161756863Y-143236412D01*
X161764773Y-143174997D01*
X161776066Y-143112971D01*
X161784731Y-143073068D01*
X161806610Y-143005495D01*
X161837590Y-142950975D01*
X161875983Y-142911069D01*
X161920100Y-142887342D01*
X161968254Y-142881358D01*
X161988448Y-142884324D01*
G37*
D10*
%TO.C,MCU1*%
X176046718Y-109839276D02*
G75*
G03*
X176046718Y-109839276I-125000J0D01*
G01*
X176046718Y-104759276D02*
G75*
G03*
X176046718Y-104759276I-125000J0D01*
G01*
X176046718Y-102219276D02*
G75*
G03*
X176046718Y-102219276I-125000J0D01*
G01*
X174522718Y-109839276D02*
G75*
G03*
X174522718Y-109839276I-125000J0D01*
G01*
X174522718Y-112379276D02*
G75*
G03*
X174522718Y-112379276I-125000J0D01*
G01*
X174522718Y-89519276D02*
G75*
G03*
X174522718Y-89519276I-125000J0D01*
G01*
X174522718Y-117459276D02*
G75*
G03*
X174522718Y-117459276I-125000J0D01*
G01*
X176046718Y-99679276D02*
G75*
G03*
X176046718Y-99679276I-125000J0D01*
G01*
X174522718Y-99679276D02*
G75*
G03*
X174522718Y-99679276I-125000J0D01*
G01*
X174522718Y-104759276D02*
G75*
G03*
X174522718Y-104759276I-125000J0D01*
G01*
X174522718Y-107299276D02*
G75*
G03*
X174522718Y-107299276I-125000J0D01*
G01*
X176046718Y-94599276D02*
G75*
G03*
X176046718Y-94599276I-125000J0D01*
G01*
X176046718Y-89519276D02*
G75*
G03*
X176046718Y-89519276I-125000J0D01*
G01*
X176046718Y-97139276D02*
G75*
G03*
X176046718Y-97139276I-125000J0D01*
G01*
X176046718Y-117459276D02*
G75*
G03*
X176046718Y-117459276I-125000J0D01*
G01*
X174522718Y-94599276D02*
G75*
G03*
X174522718Y-94599276I-125000J0D01*
G01*
X176046718Y-114919276D02*
G75*
G03*
X176046718Y-114919276I-125000J0D01*
G01*
X176046718Y-92059276D02*
G75*
G03*
X176046718Y-92059276I-125000J0D01*
G01*
X176046718Y-107299276D02*
G75*
G03*
X176046718Y-107299276I-125000J0D01*
G01*
X176046718Y-112379276D02*
G75*
G03*
X176046718Y-112379276I-125000J0D01*
G01*
X174522718Y-114919276D02*
G75*
G03*
X174522718Y-114919276I-125000J0D01*
G01*
X174522718Y-97139276D02*
G75*
G03*
X174522718Y-97139276I-125000J0D01*
G01*
X174522718Y-102219276D02*
G75*
G03*
X174522718Y-102219276I-125000J0D01*
G01*
X174522718Y-92059276D02*
G75*
G03*
X174522718Y-92059276I-125000J0D01*
G01*
G36*
X181255718Y-105267276D02*
G01*
X180239718Y-105267276D01*
X180239718Y-104251276D01*
X181255718Y-104251276D01*
X181255718Y-105267276D01*
G37*
D11*
X181255718Y-105267276D02*
X180239718Y-105267276D01*
X180239718Y-104251276D01*
X181255718Y-104251276D01*
X181255718Y-105267276D01*
G36*
X181255718Y-107807276D02*
G01*
X180239718Y-107807276D01*
X180239718Y-106791276D01*
X181255718Y-106791276D01*
X181255718Y-107807276D01*
G37*
X181255718Y-107807276D02*
X180239718Y-107807276D01*
X180239718Y-106791276D01*
X181255718Y-106791276D01*
X181255718Y-107807276D01*
G36*
X170079718Y-112887276D02*
G01*
X169063718Y-112887276D01*
X169063718Y-111871276D01*
X170079718Y-111871276D01*
X170079718Y-112887276D01*
G37*
X170079718Y-112887276D02*
X169063718Y-112887276D01*
X169063718Y-111871276D01*
X170079718Y-111871276D01*
X170079718Y-112887276D01*
G36*
X170079718Y-95107276D02*
G01*
X169063718Y-95107276D01*
X169063718Y-94091276D01*
X170079718Y-94091276D01*
X170079718Y-95107276D01*
G37*
X170079718Y-95107276D02*
X169063718Y-95107276D01*
X169063718Y-94091276D01*
X170079718Y-94091276D01*
X170079718Y-95107276D01*
G36*
X181255718Y-92567276D02*
G01*
X180239718Y-92567276D01*
X180239718Y-91551276D01*
X181255718Y-91551276D01*
X181255718Y-92567276D01*
G37*
X181255718Y-92567276D02*
X180239718Y-92567276D01*
X180239718Y-91551276D01*
X181255718Y-91551276D01*
X181255718Y-92567276D01*
G36*
X181255718Y-110347276D02*
G01*
X180239718Y-110347276D01*
X180239718Y-109331276D01*
X181255718Y-109331276D01*
X181255718Y-110347276D01*
G37*
X181255718Y-110347276D02*
X180239718Y-110347276D01*
X180239718Y-109331276D01*
X181255718Y-109331276D01*
X181255718Y-110347276D01*
G36*
X170079718Y-117967276D02*
G01*
X169063718Y-117967276D01*
X169063718Y-116951276D01*
X170079718Y-116951276D01*
X170079718Y-117967276D01*
G37*
X170079718Y-117967276D02*
X169063718Y-117967276D01*
X169063718Y-116951276D01*
X170079718Y-116951276D01*
X170079718Y-117967276D01*
G36*
X170079718Y-90027276D02*
G01*
X169063718Y-90027276D01*
X169063718Y-89011276D01*
X170079718Y-89011276D01*
X170079718Y-90027276D01*
G37*
X170079718Y-90027276D02*
X169063718Y-90027276D01*
X169063718Y-89011276D01*
X170079718Y-89011276D01*
X170079718Y-90027276D01*
G36*
X181255718Y-102727276D02*
G01*
X180239718Y-102727276D01*
X180239718Y-101711276D01*
X181255718Y-101711276D01*
X181255718Y-102727276D01*
G37*
X181255718Y-102727276D02*
X180239718Y-102727276D01*
X180239718Y-101711276D01*
X181255718Y-101711276D01*
X181255718Y-102727276D01*
G36*
X181255718Y-112887276D02*
G01*
X180239718Y-112887276D01*
X180239718Y-111871276D01*
X181255718Y-111871276D01*
X181255718Y-112887276D01*
G37*
X181255718Y-112887276D02*
X180239718Y-112887276D01*
X180239718Y-111871276D01*
X181255718Y-111871276D01*
X181255718Y-112887276D01*
G36*
X181255718Y-97647276D02*
G01*
X180239718Y-97647276D01*
X180239718Y-96631276D01*
X181255718Y-96631276D01*
X181255718Y-97647276D01*
G37*
X181255718Y-97647276D02*
X180239718Y-97647276D01*
X180239718Y-96631276D01*
X181255718Y-96631276D01*
X181255718Y-97647276D01*
G36*
X181255718Y-115427276D02*
G01*
X180239718Y-115427276D01*
X180239718Y-114411276D01*
X181255718Y-114411276D01*
X181255718Y-115427276D01*
G37*
X181255718Y-115427276D02*
X180239718Y-115427276D01*
X180239718Y-114411276D01*
X181255718Y-114411276D01*
X181255718Y-115427276D01*
G36*
X170079718Y-100187276D02*
G01*
X169063718Y-100187276D01*
X169063718Y-99171276D01*
X170079718Y-99171276D01*
X170079718Y-100187276D01*
G37*
X170079718Y-100187276D02*
X169063718Y-100187276D01*
X169063718Y-99171276D01*
X170079718Y-99171276D01*
X170079718Y-100187276D01*
G36*
X170079718Y-105267276D02*
G01*
X169063718Y-105267276D01*
X169063718Y-104251276D01*
X170079718Y-104251276D01*
X170079718Y-105267276D01*
G37*
X170079718Y-105267276D02*
X169063718Y-105267276D01*
X169063718Y-104251276D01*
X170079718Y-104251276D01*
X170079718Y-105267276D01*
G36*
X170079718Y-92567276D02*
G01*
X169063718Y-92567276D01*
X169063718Y-91551276D01*
X170079718Y-91551276D01*
X170079718Y-92567276D01*
G37*
X170079718Y-92567276D02*
X169063718Y-92567276D01*
X169063718Y-91551276D01*
X170079718Y-91551276D01*
X170079718Y-92567276D01*
G36*
X181255718Y-90027276D02*
G01*
X180239718Y-90027276D01*
X180239718Y-89011276D01*
X181255718Y-89011276D01*
X181255718Y-90027276D01*
G37*
X181255718Y-90027276D02*
X180239718Y-90027276D01*
X180239718Y-89011276D01*
X181255718Y-89011276D01*
X181255718Y-90027276D01*
G36*
X170079718Y-107807276D02*
G01*
X169063718Y-107807276D01*
X169063718Y-106791276D01*
X170079718Y-106791276D01*
X170079718Y-107807276D01*
G37*
X170079718Y-107807276D02*
X169063718Y-107807276D01*
X169063718Y-106791276D01*
X170079718Y-106791276D01*
X170079718Y-107807276D01*
G36*
X181255718Y-100187276D02*
G01*
X180239718Y-100187276D01*
X180239718Y-99171276D01*
X181255718Y-99171276D01*
X181255718Y-100187276D01*
G37*
X181255718Y-100187276D02*
X180239718Y-100187276D01*
X180239718Y-99171276D01*
X181255718Y-99171276D01*
X181255718Y-100187276D01*
G36*
X170079718Y-115427276D02*
G01*
X169063718Y-115427276D01*
X169063718Y-114411276D01*
X170079718Y-114411276D01*
X170079718Y-115427276D01*
G37*
X170079718Y-115427276D02*
X169063718Y-115427276D01*
X169063718Y-114411276D01*
X170079718Y-114411276D01*
X170079718Y-115427276D01*
G36*
X181255718Y-95107276D02*
G01*
X180239718Y-95107276D01*
X180239718Y-94091276D01*
X181255718Y-94091276D01*
X181255718Y-95107276D01*
G37*
X181255718Y-95107276D02*
X180239718Y-95107276D01*
X180239718Y-94091276D01*
X181255718Y-94091276D01*
X181255718Y-95107276D01*
G36*
X170079718Y-110347276D02*
G01*
X169063718Y-110347276D01*
X169063718Y-109331276D01*
X170079718Y-109331276D01*
X170079718Y-110347276D01*
G37*
X170079718Y-110347276D02*
X169063718Y-110347276D01*
X169063718Y-109331276D01*
X170079718Y-109331276D01*
X170079718Y-110347276D01*
G36*
X181255718Y-117967276D02*
G01*
X180239718Y-117967276D01*
X180239718Y-116951276D01*
X181255718Y-116951276D01*
X181255718Y-117967276D01*
G37*
X181255718Y-117967276D02*
X180239718Y-117967276D01*
X180239718Y-116951276D01*
X181255718Y-116951276D01*
X181255718Y-117967276D01*
G36*
X170079718Y-97647276D02*
G01*
X169063718Y-97647276D01*
X169063718Y-96631276D01*
X170079718Y-96631276D01*
X170079718Y-97647276D01*
G37*
X170079718Y-97647276D02*
X169063718Y-97647276D01*
X169063718Y-96631276D01*
X170079718Y-96631276D01*
X170079718Y-97647276D01*
G36*
X170079718Y-102727276D02*
G01*
X169063718Y-102727276D01*
X169063718Y-101711276D01*
X170079718Y-101711276D01*
X170079718Y-102727276D01*
G37*
X170079718Y-102727276D02*
X169063718Y-102727276D01*
X169063718Y-101711276D01*
X170079718Y-101711276D01*
X170079718Y-102727276D01*
%TD*%
D12*
%TO.C,*%
X100584000Y-145796000D03*
%TD*%
%TO.C,*%
X134366000Y-120396000D03*
%TD*%
%TO.C,*%
X162306000Y-97536000D03*
%TD*%
%TO.C,REF\u002A\u002A*%
X167386000Y-143764000D03*
%TD*%
D13*
%TO.C,*%
X160797804Y-90148758D03*
X164197804Y-90148758D03*
%TD*%
D14*
%TO.C,S9*%
X180659717Y-130489275D03*
D15*
X175159717Y-124539275D03*
X170159717Y-126739275D03*
D14*
X169659717Y-130489275D03*
D15*
X180159717Y-126739275D03*
D16*
X175159717Y-130489275D03*
D15*
X175159717Y-124539275D03*
D17*
X171884717Y-124539275D03*
X183434717Y-126739275D03*
%TD*%
D18*
%TO.C,REF\u002A\u002A*%
X183360756Y-143153232D03*
X176360756Y-143153232D03*
D19*
X173660756Y-140853232D03*
X173660756Y-145453232D03*
X174760756Y-145453232D03*
X174760756Y-140853232D03*
X178760756Y-145453232D03*
X178760756Y-140853232D03*
X181760756Y-145453232D03*
X181760756Y-140853232D03*
%TD*%
D15*
%TO.C,S5*%
X111436619Y-117415452D03*
D14*
X103505206Y-125251598D03*
D16*
X108489899Y-122927198D03*
D15*
X105975320Y-117534667D03*
X105975320Y-117534667D03*
D14*
X113474592Y-120602798D03*
D15*
X102373542Y-121641635D03*
D20*
X103007162Y-118918741D03*
X114404777Y-116031378D03*
%TD*%
D15*
%TO.C,S1*%
X146304491Y-101436558D03*
D16*
X143357771Y-106948304D03*
D15*
X140843192Y-101555773D03*
X137241414Y-105662741D03*
X140843192Y-101555773D03*
D14*
X148342464Y-104623904D03*
X138373078Y-109272704D03*
D20*
X137875034Y-102939847D03*
X149272649Y-100052484D03*
%TD*%
D21*
%TO.C,*%
X165354000Y-120638000D03*
X165354000Y-119138000D03*
%TD*%
D14*
%TO.C,S2*%
X148342464Y-104623904D03*
X138373078Y-109272704D03*
D16*
X143357771Y-106948304D03*
D22*
X149495259Y-108279182D03*
X140432181Y-112505365D03*
X145851219Y-112295520D03*
X145851219Y-112295520D03*
%TD*%
D14*
%TO.C,S6*%
X103505206Y-125251598D03*
D16*
X108489899Y-122927198D03*
D14*
X113474592Y-120602798D03*
D22*
X105564309Y-128484259D03*
X114627387Y-124258076D03*
X110983347Y-128274414D03*
X110983347Y-128274414D03*
%TD*%
D23*
%TO.C,MCU1*%
X169317718Y-104759276D03*
D24*
X182779718Y-89519276D03*
D23*
X169317718Y-107299276D03*
D24*
X182779718Y-114919276D03*
D25*
X181001718Y-97139276D03*
X181001718Y-114919276D03*
D24*
X167539718Y-104759276D03*
X182779718Y-94599276D03*
D23*
X169317718Y-92059276D03*
X169317718Y-94599276D03*
D24*
X182779718Y-112379276D03*
X167539718Y-114919276D03*
D23*
X169317718Y-97139276D03*
D25*
X181001718Y-104759276D03*
D23*
X169317718Y-112379276D03*
X169317718Y-117459276D03*
D24*
X182779718Y-92059276D03*
X182779718Y-104759276D03*
D25*
X181001718Y-102219276D03*
D24*
X167539718Y-94599276D03*
X167539718Y-92059276D03*
D25*
X181001718Y-117459276D03*
X181001718Y-107299276D03*
D24*
X182779718Y-109839276D03*
X167539718Y-107299276D03*
X167539718Y-99679276D03*
D23*
X169317718Y-114919276D03*
D25*
X181001718Y-99679276D03*
X181001718Y-94599276D03*
D24*
X182779718Y-107299276D03*
D25*
X181001718Y-109839276D03*
D23*
X169317718Y-99679276D03*
D24*
X167539718Y-89519276D03*
X167539718Y-102219276D03*
X182779718Y-102219276D03*
D25*
X181001718Y-112379276D03*
D24*
X167539718Y-117459276D03*
D26*
X182779718Y-89519276D03*
D24*
X182779718Y-97139276D03*
D23*
X169317718Y-89519276D03*
X169317718Y-102219276D03*
D24*
X167539718Y-112379276D03*
X182779718Y-117459276D03*
X167539718Y-97139276D03*
D25*
X181001718Y-92059276D03*
X181001718Y-89519276D03*
D23*
X169317718Y-109839276D03*
D24*
X167539718Y-109839276D03*
X182779718Y-99679276D03*
D27*
X170333718Y-89519276D03*
X170333718Y-92059276D03*
X170333718Y-94599276D03*
X170333718Y-97139276D03*
X170333718Y-99679276D03*
X170333718Y-102219276D03*
X170333718Y-104759276D03*
X170333718Y-107299276D03*
X170333718Y-109839276D03*
X170333718Y-112379276D03*
X170333718Y-114919276D03*
X170333718Y-117459276D03*
D28*
X179985718Y-117459276D03*
X179985718Y-114919276D03*
X179985718Y-112379276D03*
X179985718Y-109839276D03*
X179985718Y-107299276D03*
X179985718Y-104759276D03*
X179985718Y-102219276D03*
X179985718Y-99679276D03*
X179985718Y-97139276D03*
X179985718Y-94599276D03*
X179985718Y-92059276D03*
X179985718Y-89519276D03*
%TD*%
D14*
%TO.C,S8*%
X97533612Y-132094420D03*
X87564226Y-136743220D03*
D16*
X92548919Y-134418820D03*
D22*
X98686407Y-135749698D03*
X89623329Y-139975881D03*
X95042367Y-139766036D03*
X95042367Y-139766036D03*
%TD*%
D14*
%TO.C,S10*%
X180659717Y-130489275D03*
X169659717Y-130489275D03*
D16*
X175159717Y-130489275D03*
D22*
X170159717Y-134289275D03*
X180159717Y-134289275D03*
X175159717Y-136389275D03*
X175159717Y-136389275D03*
%TD*%
D29*
%TO.C,*%
X156992105Y-91138121D03*
D30*
X151842105Y-90028121D03*
D29*
X156992105Y-88928121D03*
D30*
X154842105Y-90028121D03*
D29*
X149692105Y-88928121D03*
D30*
X154842105Y-90028121D03*
D29*
X149692105Y-91138121D03*
D30*
X151842105Y-90028121D03*
D31*
X151092105Y-91788121D03*
X154092105Y-91788121D03*
X155592105Y-91788121D03*
%TD*%
D16*
%TO.C,S3*%
X123874405Y-110843247D03*
D15*
X117758048Y-109557684D03*
X121359826Y-105450716D03*
D14*
X128859098Y-108518847D03*
X118889712Y-113167647D03*
D15*
X126821125Y-105331501D03*
X121359826Y-105450716D03*
D20*
X118391668Y-106834790D03*
X129789283Y-103947427D03*
%TD*%
D15*
%TO.C,S7*%
X95495639Y-128907074D03*
X90034340Y-129026289D03*
D14*
X87564226Y-136743220D03*
X97533612Y-132094420D03*
D15*
X86432562Y-133133257D03*
X90034340Y-129026289D03*
D16*
X92548919Y-134418820D03*
D20*
X87066182Y-130410363D03*
X98463797Y-127523000D03*
%TD*%
D14*
%TO.C,S4*%
X118889712Y-113167647D03*
X128859098Y-108518847D03*
D16*
X123874405Y-110843247D03*
D22*
X120948815Y-116400308D03*
X130011893Y-112174125D03*
X126367853Y-116190463D03*
X126367853Y-116190463D03*
%TD*%
M02*
