  0
SECTION
  2
HEADER
  9
$ANGBASE
  50
0.0
  9
$ANGDIR
  70
1
  9
$MEASUREMENT
  70
0
  0
ENDSEC
  0
SECTION
  2
TABLES
  0
TABLE
  2
LTYPE
  70
4
  0
LTYPE
  5
40F
  2
CONTINUOUS
  70
0
  3
Solid line
  72
65
  73
0
  40
0.0
  0
LTYPE
  5
410
  2
DASHDOT
 70
0
  3
Dash Dot ____ _ ____ _
 72
65
 73
4
 40
2.0
 49
1.25
 49
-0.25
 49
0.25
 49
-0.25
  0
LTYPE
  5
411
  2
DASHED
 70
0
  3
Dashed __ __ __ __ __
 72
65
 73
2
 40
0.75
 49
0.5
 49
-0.25
  0
LTYPE
  5
43B
  2
DOTTED
 70
0
  3
Dotted .  .  .  .
 72
65
 73
2
 40
0.2
 49
0.0
 49
-0.2
  0
ENDTAB
  0
TABLE
  2
STYLE
  70
4
  0
STYLE
  2
KICAD
  70
0
  40
0
  41
1
  42
1
  50
0
  71
0
  3
isocp.shx
  0
STYLE
  2
KICADB
  70
0
  40
0
  41
1
  42
1
  50
0
  71
0
  3
isocp.shx
  0
STYLE
  2
KICADI
  70
0
  40
0
  41
1
  42
1
  50
15
  71
0
  3
isocp.shx
  0
STYLE
  2
KICADBI
  70
0
  40
0
  41
1
  42
1
  50
15
  71
0
  3
isocp.shx
  0
ENDTAB
  0
TABLE
  2
LAYER
  70
1
  0
LAYER
  2
BLACK
  70
0
  62
7
  6
CONTINUOUS
  0
ENDTAB
  0
ENDSEC
  0
SECTION
  2
ENTITIES
0
LINE
8
BLACK
6
CONTINUOUS
10
7.25474
20
-3.4289
11
7.26711
21
-3.43081
0
LINE
8
BLACK
6
CONTINUOUS
10
7.26711
20
-3.43081
11
7.27919
21
-3.43409
0
LINE
8
BLACK
6
CONTINUOUS
10
7.27919
20
-3.43409
11
7.29082
21
-3.43871
0
LINE
8
BLACK
6
CONTINUOUS
10
7.29082
20
-3.43871
11
7.30187
21
-3.4446
0
LINE
8
BLACK
6
CONTINUOUS
10
7.30187
20
-3.4446
11
7.31218
21
-3.4517
0
LINE
8
BLACK
6
CONTINUOUS
10
7.31218
20
-3.4517
11
7.32163
21
-3.4599
0
LINE
8
BLACK
6
CONTINUOUS
10
7.32163
20
-3.4599
11
7.3301
21
-3.46912
0
LINE
8
BLACK
6
CONTINUOUS
10
7.3301
20
-3.46912
11
7.33749
21
-3.47922
0
LINE
8
BLACK
6
CONTINUOUS
10
7.33749
20
-3.47922
11
7.34369
21
-3.49009
0
LINE
8
BLACK
6
CONTINUOUS
10
7.34369
20
-3.49009
11
7.34864
21
-3.50159
0
LINE
8
BLACK
6
CONTINUOUS
10
7.34864
20
-3.50159
11
7.35227
21
-3.51357
0
LINE
8
BLACK
6
CONTINUOUS
10
7.35227
20
-3.51357
11
7.35453
21
-3.52588
0
LINE
8
BLACK
6
CONTINUOUS
10
7.35453
20
-3.52588
11
7.3554
21
-3.53836
0
LINE
8
BLACK
6
CONTINUOUS
10
7.3554
20
-3.53836
11
7.3554
21
-3.53837
0
LINE
8
BLACK
6
CONTINUOUS
10
7.3554
20
-3.53837
11
7.35539
21
-3.53838
0
LINE
8
BLACK
6
CONTINUOUS
10
7.35539
20
-3.53838
11
7.3554
21
-3.53838
0
LINE
8
BLACK
6
CONTINUOUS
10
7.3554
20
-3.53838
11
7.34751
21
-5.7413
0
LINE
8
BLACK
6
CONTINUOUS
10
7.34751
20
-5.7413
11
7.34746
21
-5.74142
0
LINE
8
BLACK
6
CONTINUOUS
10
7.34746
20
-5.74142
11
7.34748
21
-5.74155
0
LINE
8
BLACK
6
CONTINUOUS
10
7.34748
20
-5.74155
11
7.34748
21
-5.74155
0
LINE
8
BLACK
6
CONTINUOUS
10
7.34748
20
-5.74155
11
7.34242
21
-5.75767
0
LINE
8
BLACK
6
CONTINUOUS
10
7.34242
20
-5.75767
11
7.33605
21
-5.77333
0
LINE
8
BLACK
6
CONTINUOUS
10
7.33605
20
-5.77333
11
7.32842
21
-5.7884
0
LINE
8
BLACK
6
CONTINUOUS
10
7.32842
20
-5.7884
11
7.31958
21
-5.8028
0
LINE
8
BLACK
6
CONTINUOUS
10
7.31958
20
-5.8028
11
7.30959
21
-5.81643
0
LINE
8
BLACK
6
CONTINUOUS
10
7.30959
20
-5.81643
11
7.29852
21
-5.82919
0
LINE
8
BLACK
6
CONTINUOUS
10
7.29852
20
-5.82919
11
7.28643
21
-5.841
0
LINE
8
BLACK
6
CONTINUOUS
10
7.28643
20
-5.841
11
7.27342
21
-5.85178
0
LINE
8
BLACK
6
CONTINUOUS
10
7.27342
20
-5.85178
11
7.25957
21
-5.86146
0
LINE
8
BLACK
6
CONTINUOUS
10
7.25957
20
-5.86146
11
7.24497
21
-5.86997
0
LINE
8
BLACK
6
CONTINUOUS
10
7.24497
20
-5.86997
11
7.22972
21
-5.87725
0
LINE
8
BLACK
6
CONTINUOUS
10
7.22972
20
-5.87725
11
7.21393
21
-5.88326
0
LINE
8
BLACK
6
CONTINUOUS
10
7.21393
20
-5.88326
11
7.1977
21
-5.88795
0
LINE
8
BLACK
6
CONTINUOUS
10
7.1977
20
-5.88795
11
7.18114
21
-5.8913
0
LINE
8
BLACK
6
CONTINUOUS
10
7.18114
20
-5.8913
11
7.16436
21
-5.89327
0
LINE
8
BLACK
6
CONTINUOUS
10
7.16436
20
-5.89327
11
7.14748
21
-5.89387
0
LINE
8
BLACK
6
CONTINUOUS
10
7.14748
20
-5.89387
11
7.14748
21
-5.89387
0
LINE
8
BLACK
6
CONTINUOUS
10
7.14748
20
-5.89387
11
3.56662
21
-5.92304
0
LINE
8
BLACK
6
CONTINUOUS
10
3.56662
20
-5.92304
11
3.56662
21
-5.92304
0
LINE
8
BLACK
6
CONTINUOUS
10
3.56662
20
-5.92304
11
3.55343
21
-5.92329
0
LINE
8
BLACK
6
CONTINUOUS
10
3.55343
20
-5.92329
11
3.54022
21
-5.92228
0
LINE
8
BLACK
6
CONTINUOUS
10
3.54022
20
-5.92228
11
3.52716
21
-5.92002
0
LINE
8
BLACK
6
CONTINUOUS
10
3.52716
20
-5.92002
11
3.51438
21
-5.91652
0
LINE
8
BLACK
6
CONTINUOUS
10
3.51438
20
-5.91652
11
3.50199
21
-5.91182
0
LINE
8
BLACK
6
CONTINUOUS
10
3.50199
20
-5.91182
11
3.4901
21
-5.90596
0
LINE
8
BLACK
6
CONTINUOUS
10
3.4901
20
-5.90596
11
3.47883
21
-5.899
0
LINE
8
BLACK
6
CONTINUOUS
10
3.47883
20
-5.899
11
3.46827
21
-5.89099
0
LINE
8
BLACK
6
CONTINUOUS
10
3.46827
20
-5.89099
11
3.45852
21
-5.88201
0
LINE
8
BLACK
6
CONTINUOUS
10
3.45852
20
-5.88201
11
3.44967
21
-5.87214
0
LINE
8
BLACK
6
CONTINUOUS
10
3.44967
20
-5.87214
11
3.44181
21
-5.86148
0
LINE
8
BLACK
6
CONTINUOUS
10
3.44181
20
-5.86148
11
3.43499
21
-5.85011
0
LINE
8
BLACK
6
CONTINUOUS
10
3.43499
20
-5.85011
11
3.42929
21
-5.83815
0
LINE
8
BLACK
6
CONTINUOUS
10
3.42929
20
-5.83815
11
3.42479
21
-5.8258
0
LINE
8
BLACK
6
CONTINUOUS
10
3.42479
20
-5.8258
11
3.15601
21
-5.23272
0
LINE
8
BLACK
6
CONTINUOUS
10
3.15601
20
-5.23272
11
3.15601
21
-5.23267
0
LINE
8
BLACK
6
CONTINUOUS
10
3.15601
20
-5.23267
11
3.15597
21
-5.23263
0
LINE
8
BLACK
6
CONTINUOUS
10
3.15597
20
-5.23263
11
3.15248
21
-5.22006
0
LINE
8
BLACK
6
CONTINUOUS
10
3.15248
20
-5.22006
11
3.15027
21
-5.2072
0
LINE
8
BLACK
6
CONTINUOUS
10
3.15027
20
-5.2072
11
3.14938
21
-5.19419
0
LINE
8
BLACK
6
CONTINUOUS
10
3.14938
20
-5.19419
11
3.14982
21
-5.18115
0
LINE
8
BLACK
6
CONTINUOUS
10
3.14982
20
-5.18115
11
3.15157
21
-5.16822
0
LINE
8
BLACK
6
CONTINUOUS
10
3.15157
20
-5.16822
11
3.15463
21
-5.15554
0
LINE
8
BLACK
6
CONTINUOUS
10
3.15463
20
-5.15554
11
3.15895
21
-5.14323
0
LINE
8
BLACK
6
CONTINUOUS
10
3.15895
20
-5.14323
11
3.1645
21
-5.13143
0
LINE
8
BLACK
6
CONTINUOUS
10
3.1645
20
-5.13143
11
3.17121
21
-5.12024
0
LINE
8
BLACK
6
CONTINUOUS
10
3.17121
20
-5.12024
11
3.17903
21
-5.1098
0
LINE
8
BLACK
6
CONTINUOUS
10
3.17903
20
-5.1098
11
3.18786
21
-5.1002
0
LINE
8
BLACK
6
CONTINUOUS
10
3.18786
20
-5.1002
11
3.19762
21
-5.09155
0
LINE
8
BLACK
6
CONTINUOUS
10
3.19762
20
-5.09155
11
3.20821
21
-5.08393
0
LINE
8
BLACK
6
CONTINUOUS
10
3.20821
20
-5.08393
11
3.21952
21
-5.07742
0
LINE
8
BLACK
6
CONTINUOUS
10
3.21952
20
-5.07742
11
3.21952
21
-5.07742
0
LINE
8
BLACK
6
CONTINUOUS
10
3.21952
20
-5.07742
11
3.21953
21
-5.07741
0
LINE
8
BLACK
6
CONTINUOUS
10
3.21953
20
-5.07741
11
3.21955
21
-5.0774
0
LINE
8
BLACK
6
CONTINUOUS
10
3.21955
20
-5.0774
11
3.74382
21
-4.83238
0
LINE
8
BLACK
6
CONTINUOUS
10
3.74382
20
-4.83238
11
3.74414
21
-4.83236
0
LINE
8
BLACK
6
CONTINUOUS
10
3.74414
20
-4.83236
11
3.74961
21
-4.82911
0
LINE
8
BLACK
6
CONTINUOUS
10
3.74961
20
-4.82911
11
3.75465
21
-4.82473
0
LINE
8
BLACK
6
CONTINUOUS
10
3.75465
20
-4.82473
11
3.75882
21
-4.81953
0
LINE
8
BLACK
6
CONTINUOUS
10
3.75882
20
-4.81953
11
3.762
21
-4.81366
0
LINE
8
BLACK
6
CONTINUOUS
10
3.762
20
-4.81366
11
3.76407
21
-4.80733
0
LINE
8
BLACK
6
CONTINUOUS
10
3.76407
20
-4.80733
11
3.76499
21
-4.80072
0
LINE
8
BLACK
6
CONTINUOUS
10
3.76499
20
-4.80072
11
3.76472
21
-4.79441
0
LINE
8
BLACK
6
CONTINUOUS
10
3.76472
20
-4.79441
11
3.76461
21
-4.7943
0
LINE
8
BLACK
6
CONTINUOUS
10
3.76461
20
-4.7943
11
3.73511
21
-4.71729
0
LINE
8
BLACK
6
CONTINUOUS
10
3.73511
20
-4.71729
11
3.73511
21
-4.7172
0
LINE
8
BLACK
6
CONTINUOUS
10
3.73511
20
-4.7172
11
3.73506
21
-4.71713
0
LINE
8
BLACK
6
CONTINUOUS
10
3.73506
20
-4.71713
11
3.73387
21
-4.70738
0
LINE
8
BLACK
6
CONTINUOUS
10
3.73387
20
-4.70738
11
3.73403
21
-4.69757
0
LINE
8
BLACK
6
CONTINUOUS
10
3.73403
20
-4.69757
11
3.73553
21
-4.68787
0
LINE
8
BLACK
6
CONTINUOUS
10
3.73553
20
-4.68787
11
3.73834
21
-4.67847
0
LINE
8
BLACK
6
CONTINUOUS
10
3.73834
20
-4.67847
11
3.74241
21
-4.66954
0
LINE
8
BLACK
6
CONTINUOUS
10
3.74241
20
-4.66954
11
3.74766
21
-4.66125
0
LINE
8
BLACK
6
CONTINUOUS
10
3.74766
20
-4.66125
11
3.754
21
-4.65376
0
LINE
8
BLACK
6
CONTINUOUS
10
3.754
20
-4.65376
11
3.76131
21
-4.6472
0
LINE
8
BLACK
6
CONTINUOUS
10
3.76131
20
-4.6472
11
3.76944
21
-4.64171
0
LINE
8
BLACK
6
CONTINUOUS
10
3.76944
20
-4.64171
11
3.77819
21
-4.63741
0
LINE
8
BLACK
6
CONTINUOUS
10
3.77819
20
-4.63741
11
3.77819
21
-4.6374
0
LINE
8
BLACK
6
CONTINUOUS
10
3.77819
20
-4.6374
11
4.33523
21
-4.36943
0
LINE
8
BLACK
6
CONTINUOUS
10
4.33523
20
-4.36943
11
4.33529
21
-4.36943
0
LINE
8
BLACK
6
CONTINUOUS
10
4.33529
20
-4.36943
11
4.33534
21
-4.36939
0
LINE
8
BLACK
6
CONTINUOUS
10
4.33534
20
-4.36939
11
4.33566
21
-4.36941
0
LINE
8
BLACK
6
CONTINUOUS
10
4.33566
20
-4.36941
11
4.33568
21
-4.36941
0
LINE
8
BLACK
6
CONTINUOUS
10
4.33568
20
-4.36941
11
4.34342
21
-4.3661
0
LINE
8
BLACK
6
CONTINUOUS
10
4.34342
20
-4.3661
11
4.3509
21
-4.36159
0
LINE
8
BLACK
6
CONTINUOUS
10
4.3509
20
-4.36159
11
4.35767
21
-4.35609
0
LINE
8
BLACK
6
CONTINUOUS
10
4.35767
20
-4.35609
11
4.36362
21
-4.34969
0
LINE
8
BLACK
6
CONTINUOUS
10
4.36362
20
-4.34969
11
4.36863
21
-4.34254
0
LINE
8
BLACK
6
CONTINUOUS
10
4.36863
20
-4.34254
11
4.37259
21
-4.33475
0
LINE
8
BLACK
6
CONTINUOUS
10
4.37259
20
-4.33475
11
4.37544
21
-4.32649
0
LINE
8
BLACK
6
CONTINUOUS
10
4.37544
20
-4.32649
11
4.37711
21
-4.31792
0
LINE
8
BLACK
6
CONTINUOUS
10
4.37711
20
-4.31792
11
4.37757
21
-4.3092
0
LINE
8
BLACK
6
CONTINUOUS
10
4.37757
20
-4.3092
11
4.37682
21
-4.3005
0
LINE
8
BLACK
6
CONTINUOUS
10
4.37682
20
-4.3005
11
4.37487
21
-4.29199
0
LINE
8
BLACK
6
CONTINUOUS
10
4.37487
20
-4.29199
11
4.37187
21
-4.28413
0
LINE
8
BLACK
6
CONTINUOUS
10
4.37187
20
-4.28413
11
4.37164
21
-4.28394
0
LINE
8
BLACK
6
CONTINUOUS
10
4.37164
20
-4.28394
11
4.33395
21
-4.21267
0
LINE
8
BLACK
6
CONTINUOUS
10
4.33395
20
-4.21267
11
4.33394
21
-4.21258
0
LINE
8
BLACK
6
CONTINUOUS
10
4.33394
20
-4.21258
11
4.33388
21
-4.21251
0
LINE
8
BLACK
6
CONTINUOUS
10
4.33388
20
-4.21251
11
4.33154
21
-4.20321
0
LINE
8
BLACK
6
CONTINUOUS
10
4.33154
20
-4.20321
11
4.33039
21
-4.19369
0
LINE
8
BLACK
6
CONTINUOUS
10
4.33039
20
-4.19369
11
4.33047
21
-4.18409
0
LINE
8
BLACK
6
CONTINUOUS
10
4.33047
20
-4.18409
11
4.33176
21
-4.17459
0
LINE
8
BLACK
6
CONTINUOUS
10
4.33176
20
-4.17459
11
4.33424
21
-4.16533
0
LINE
8
BLACK
6
CONTINUOUS
10
4.33424
20
-4.16533
11
4.33788
21
-4.15645
0
LINE
8
BLACK
6
CONTINUOUS
10
4.33788
20
-4.15645
11
4.34262
21
-4.14811
0
LINE
8
BLACK
6
CONTINUOUS
10
4.34262
20
-4.14811
11
4.34837
21
-4.14044
0
LINE
8
BLACK
6
CONTINUOUS
10
4.34837
20
-4.14044
11
4.35506
21
-4.13356
0
LINE
8
BLACK
6
CONTINUOUS
10
4.35506
20
-4.13356
11
4.36256
21
-4.12758
0
LINE
8
BLACK
6
CONTINUOUS
10
4.36256
20
-4.12758
11
4.37076
21
-4.1226
0
LINE
8
BLACK
6
CONTINUOUS
10
4.37076
20
-4.1226
11
4.37944
21
-4.11874
0
LINE
8
BLACK
6
CONTINUOUS
10
4.37944
20
-4.11874
11
4.37944
21
-4.11874
0
LINE
8
BLACK
6
CONTINUOUS
10
4.37944
20
-4.11874
11
4.98317
21
-3.83029
0
LINE
8
BLACK
6
CONTINUOUS
10
4.98317
20
-3.83029
11
4.98319
21
-3.83029
0
LINE
8
BLACK
6
CONTINUOUS
10
4.98319
20
-3.83029
11
4.9832
21
-3.83028
0
LINE
8
BLACK
6
CONTINUOUS
10
4.9832
20
-3.83028
11
4.9832
21
-3.83028
0
LINE
8
BLACK
6
CONTINUOUS
10
4.9832
20
-3.83028
11
4.99478
21
-3.82599
0
LINE
8
BLACK
6
CONTINUOUS
10
4.99478
20
-3.82599
11
5.00677
21
-3.82309
0
LINE
8
BLACK
6
CONTINUOUS
10
5.00677
20
-3.82309
11
5.01903
21
-3.82161
0
LINE
8
BLACK
6
CONTINUOUS
10
5.01903
20
-3.82161
11
5.03137
21
-3.82158
0
LINE
8
BLACK
6
CONTINUOUS
10
5.03137
20
-3.82158
11
5.04363
21
-3.82299
0
LINE
8
BLACK
6
CONTINUOUS
10
5.04363
20
-3.82299
11
5.05564
21
-3.82583
0
LINE
8
BLACK
6
CONTINUOUS
10
5.05564
20
-3.82583
11
5.06724
21
-3.83006
0
LINE
8
BLACK
6
CONTINUOUS
10
5.06724
20
-3.83006
11
5.07826
21
-3.83561
0
LINE
8
BLACK
6
CONTINUOUS
10
5.07826
20
-3.83561
11
5.08855
21
-3.84242
0
LINE
8
BLACK
6
CONTINUOUS
10
5.08855
20
-3.84242
11
5.09798
21
-3.85039
0
LINE
8
BLACK
6
CONTINUOUS
10
5.09798
20
-3.85039
11
5.10641
21
-3.85941
0
LINE
8
BLACK
6
CONTINUOUS
10
5.10641
20
-3.85941
11
5.11372
21
-3.86935
0
LINE
8
BLACK
6
CONTINUOUS
10
5.11372
20
-3.86935
11
5.11982
21
-3.88008
0
LINE
8
BLACK
6
CONTINUOUS
10
5.11982
20
-3.88008
11
5.12459
21
-3.89137
0
LINE
8
BLACK
6
CONTINUOUS
10
5.12459
20
-3.89137
11
5.12459
21
-3.89137
0
LINE
8
BLACK
6
CONTINUOUS
10
5.12459
20
-3.89137
11
5.1713
21
-3.99295
0
LINE
8
BLACK
6
CONTINUOUS
10
5.1713
20
-3.99295
11
5.1713
21
-3.99298
0
LINE
8
BLACK
6
CONTINUOUS
10
5.1713
20
-3.99298
11
5.17132
21
-3.99301
0
LINE
8
BLACK
6
CONTINUOUS
10
5.17132
20
-3.99301
11
5.17131
21
-3.99334
0
LINE
8
BLACK
6
CONTINUOUS
10
5.17131
20
-3.99334
11
5.17426
21
-3.99939
0
LINE
8
BLACK
6
CONTINUOUS
10
5.17426
20
-3.99939
11
5.1784
21
-4.00509
0
LINE
8
BLACK
6
CONTINUOUS
10
5.1784
20
-4.00509
11
5.18346
21
-4.00999
0
LINE
8
BLACK
6
CONTINUOUS
10
5.18346
20
-4.00999
11
5.1893
21
-4.01393
0
LINE
8
BLACK
6
CONTINUOUS
10
5.1893
20
-4.01393
11
5.19573
21
-4.0168
0
LINE
8
BLACK
6
CONTINUOUS
10
5.19573
20
-4.0168
11
5.20256
21
-4.01851
0
LINE
8
BLACK
6
CONTINUOUS
10
5.20256
20
-4.01851
11
5.20959
21
-4.019
0
LINE
8
BLACK
6
CONTINUOUS
10
5.20959
20
-4.019
11
5.21659
21
-4.01827
0
LINE
8
BLACK
6
CONTINUOUS
10
5.21659
20
-4.01827
11
5.22306
21
-4.01642
0
LINE
8
BLACK
6
CONTINUOUS
10
5.22306
20
-4.01642
11
5.22325
21
-4.01621
0
LINE
8
BLACK
6
CONTINUOUS
10
5.22325
20
-4.01621
11
5.72295
21
-3.7884
0
LINE
8
BLACK
6
CONTINUOUS
10
5.72295
20
-3.7884
11
5.72301
21
-3.78839
0
LINE
8
BLACK
6
CONTINUOUS
10
5.72301
20
-3.78839
11
5.72306
21
-3.78836
0
LINE
8
BLACK
6
CONTINUOUS
10
5.72306
20
-3.78836
11
5.72338
21
-3.78838
0
LINE
8
BLACK
6
CONTINUOUS
10
5.72338
20
-3.78838
11
5.72338
21
-3.78838
0
LINE
8
BLACK
6
CONTINUOUS
10
5.72338
20
-3.78838
11
5.73197
21
-3.78503
0
LINE
8
BLACK
6
CONTINUOUS
10
5.73197
20
-3.78503
11
5.74036
21
-3.78052
0
LINE
8
BLACK
6
CONTINUOUS
10
5.74036
20
-3.78052
11
5.74815
21
-3.77504
0
LINE
8
BLACK
6
CONTINUOUS
10
5.74815
20
-3.77504
11
5.75521
21
-3.76865
0
LINE
8
BLACK
6
CONTINUOUS
10
5.75521
20
-3.76865
11
5.76146
21
-3.76146
0
LINE
8
BLACK
6
CONTINUOUS
10
5.76146
20
-3.76146
11
5.76679
21
-3.75357
0
LINE
8
BLACK
6
CONTINUOUS
10
5.76679
20
-3.75357
11
5.77112
21
-3.74509
0
LINE
8
BLACK
6
CONTINUOUS
10
5.77112
20
-3.74509
11
5.77441
21
-3.73615
0
LINE
8
BLACK
6
CONTINUOUS
10
5.77441
20
-3.73615
11
5.77652
21
-3.72719
0
LINE
8
BLACK
6
CONTINUOUS
10
5.77652
20
-3.72719
11
5.77644
21
-3.72695
0
LINE
8
BLACK
6
CONTINUOUS
10
5.77644
20
-3.72695
11
5.79361
21
-3.50739
0
LINE
8
BLACK
6
CONTINUOUS
10
5.79361
20
-3.50739
11
5.79361
21
-3.50739
0
LINE
8
BLACK
6
CONTINUOUS
10
5.79361
20
-3.50739
11
5.79361
21
-3.50738
0
LINE
8
BLACK
6
CONTINUOUS
10
5.79361
20
-3.50738
11
5.79361
21
-3.50738
0
LINE
8
BLACK
6
CONTINUOUS
10
5.79361
20
-3.50738
11
5.79502
21
-3.49809
0
LINE
8
BLACK
6
CONTINUOUS
10
5.79502
20
-3.49809
11
5.79761
21
-3.48907
0
LINE
8
BLACK
6
CONTINUOUS
10
5.79761
20
-3.48907
11
5.80135
21
-3.48045
0
LINE
8
BLACK
6
CONTINUOUS
10
5.80135
20
-3.48045
11
5.80616
21
-3.47238
0
LINE
8
BLACK
6
CONTINUOUS
10
5.80616
20
-3.47238
11
5.81197
21
-3.46499
0
LINE
8
BLACK
6
CONTINUOUS
10
5.81197
20
-3.46499
11
5.81868
21
-3.45842
0
LINE
8
BLACK
6
CONTINUOUS
10
5.81868
20
-3.45842
11
5.82618
21
-3.45277
0
LINE
8
BLACK
6
CONTINUOUS
10
5.82618
20
-3.45277
11
5.83435
21
-3.44812
0
LINE
8
BLACK
6
CONTINUOUS
10
5.83435
20
-3.44812
11
5.84304
21
-3.44457
0
LINE
8
BLACK
6
CONTINUOUS
10
5.84304
20
-3.44457
11
5.85212
21
-3.44216
0
LINE
8
BLACK
6
CONTINUOUS
10
5.85212
20
-3.44216
11
5.86144
21
-3.44094
0
LINE
8
BLACK
6
CONTINUOUS
10
5.86144
20
-3.44094
11
5.87076
21
-3.44094
0
LINE
8
BLACK
6
CONTINUOUS
10
5.87076
20
-3.44094
11
5.87076
21
-3.44093
0
LINE
8
BLACK
6
CONTINUOUS
10
5.87076
20
-3.44093
11
7.22986
21
-3.42928
0
LINE
8
BLACK
6
CONTINUOUS
10
7.22986
20
-3.42928
11
7.24223
21
-3.42839
0
LINE
8
BLACK
6
CONTINUOUS
10
7.24223
20
-3.42839
11
7.25474
21
-3.4289
0
LINE
8
BLACK
6
CONTINUOUS
10
7.23037
20
-3.43104
11
7.23028
21
-3.43108
0
LINE
8
BLACK
6
CONTINUOUS
10
7.23028
20
-3.43108
11
7.23
21
-3.43124
0
LINE
8
BLACK
6
CONTINUOUS
10
7.23
20
-3.43124
11
7.22994
21
-3.43122
0
LINE
8
BLACK
6
CONTINUOUS
10
7.22994
20
-3.43122
11
7.22988
21
-3.43124
0
LINE
8
BLACK
6
CONTINUOUS
10
7.22988
20
-3.43124
11
5.87078
21
-3.4429
0
LINE
8
BLACK
6
CONTINUOUS
10
5.87078
20
-3.4429
11
5.87074
21
-3.44289
0
LINE
8
BLACK
6
CONTINUOUS
10
5.87074
20
-3.44289
11
5.87071
21
-3.4429
0
LINE
8
BLACK
6
CONTINUOUS
10
5.87071
20
-3.4429
11
5.8704
21
-3.44275
0
LINE
8
BLACK
6
CONTINUOUS
10
5.8704
20
-3.44275
11
5.87035
21
-3.44273
0
LINE
8
BLACK
6
CONTINUOUS
10
5.87035
20
-3.44273
11
5.86072
21
-3.4428
0
LINE
8
BLACK
6
CONTINUOUS
10
5.86072
20
-3.4428
11
5.85084
21
-3.44427
0
LINE
8
BLACK
6
CONTINUOUS
10
5.85084
20
-3.44427
11
5.84126
21
-3.44711
0
LINE
8
BLACK
6
CONTINUOUS
10
5.84126
20
-3.44711
11
5.83217
21
-3.45126
0
LINE
8
BLACK
6
CONTINUOUS
10
5.83217
20
-3.45126
11
5.82375
21
-3.45666
0
LINE
8
BLACK
6
CONTINUOUS
10
5.82375
20
-3.45666
11
5.81618
21
-3.46317
0
LINE
8
BLACK
6
CONTINUOUS
10
5.81618
20
-3.46317
11
5.80959
21
-3.47069
0
LINE
8
BLACK
6
CONTINUOUS
10
5.80959
20
-3.47069
11
5.80412
21
-3.47906
0
LINE
8
BLACK
6
CONTINUOUS
10
5.80412
20
-3.47906
11
5.79989
21
-3.48811
0
LINE
8
BLACK
6
CONTINUOUS
10
5.79989
20
-3.48811
11
5.79696
21
-3.49766
0
LINE
8
BLACK
6
CONTINUOUS
10
5.79696
20
-3.49766
11
5.79546
21
-3.50718
0
LINE
8
BLACK
6
CONTINUOUS
10
5.79546
20
-3.50718
11
5.79546
21
-3.50719
0
LINE
8
BLACK
6
CONTINUOUS
10
5.79546
20
-3.50719
11
5.79557
21
-3.50754
0
LINE
8
BLACK
6
CONTINUOUS
10
5.79557
20
-3.50754
11
5.7784
21
-3.7271
0
LINE
8
BLACK
6
CONTINUOUS
10
5.7784
20
-3.7271
11
5.77838
21
-3.72714
0
LINE
8
BLACK
6
CONTINUOUS
10
5.77838
20
-3.72714
11
5.77839
21
-3.72719
0
LINE
8
BLACK
6
CONTINUOUS
10
5.77839
20
-3.72719
11
5.77616
21
-3.73668
0
LINE
8
BLACK
6
CONTINUOUS
10
5.77616
20
-3.73668
11
5.7728
21
-3.74582
0
LINE
8
BLACK
6
CONTINUOUS
10
5.7728
20
-3.74582
11
5.76836
21
-3.7545
0
LINE
8
BLACK
6
CONTINUOUS
10
5.76836
20
-3.7545
11
5.7629
21
-3.76257
0
LINE
8
BLACK
6
CONTINUOUS
10
5.7629
20
-3.76257
11
5.75652
21
-3.76993
0
LINE
8
BLACK
6
CONTINUOUS
10
5.75652
20
-3.76993
11
5.74929
21
-3.77646
0
LINE
8
BLACK
6
CONTINUOUS
10
5.74929
20
-3.77646
11
5.74132
21
-3.78208
0
LINE
8
BLACK
6
CONTINUOUS
10
5.74132
20
-3.78208
11
5.73274
21
-3.78669
0
LINE
8
BLACK
6
CONTINUOUS
10
5.73274
20
-3.78669
11
5.72377
21
-3.79019
0
LINE
8
BLACK
6
CONTINUOUS
10
5.72377
20
-3.79019
11
5.72377
21
-3.79019
0
LINE
8
BLACK
6
CONTINUOUS
10
5.72377
20
-3.79019
11
5.22407
21
-4.018
0
LINE
8
BLACK
6
CONTINUOUS
10
5.22407
20
-4.018
11
5.22403
21
-4.01801
0
LINE
8
BLACK
6
CONTINUOUS
10
5.22403
20
-4.01801
11
5.22401
21
-4.01803
0
LINE
8
BLACK
6
CONTINUOUS
10
5.22401
20
-4.01803
11
5.21693
21
-4.02005
0
LINE
8
BLACK
6
CONTINUOUS
10
5.21693
20
-4.02005
11
5.20962
21
-4.02082
0
LINE
8
BLACK
6
CONTINUOUS
10
5.20962
20
-4.02082
11
5.20228
21
-4.0203
0
LINE
8
BLACK
6
CONTINUOUS
10
5.20228
20
-4.0203
11
5.19514
21
-4.01851
0
LINE
8
BLACK
6
CONTINUOUS
10
5.19514
20
-4.01851
11
5.18842
21
-4.01552
0
LINE
8
BLACK
6
CONTINUOUS
10
5.18842
20
-4.01552
11
5.18232
21
-4.0114
0
LINE
8
BLACK
6
CONTINUOUS
10
5.18232
20
-4.0114
11
5.17703
21
-4.00628
0
LINE
8
BLACK
6
CONTINUOUS
10
5.17703
20
-4.00628
11
5.17271
21
-4.00033
0
LINE
8
BLACK
6
CONTINUOUS
10
5.17271
20
-4.00033
11
5.16952
21
-3.99378
0
LINE
8
BLACK
6
CONTINUOUS
10
5.16952
20
-3.99378
11
5.16951
21
-3.99377
0
LINE
8
BLACK
6
CONTINUOUS
10
5.16951
20
-3.99377
11
5.1228
21
-3.89219
0
LINE
8
BLACK
6
CONTINUOUS
10
5.1228
20
-3.89219
11
5.1228
21
-3.89214
0
LINE
8
BLACK
6
CONTINUOUS
10
5.1228
20
-3.89214
11
5.12277
21
-3.89211
0
LINE
8
BLACK
6
CONTINUOUS
10
5.12277
20
-3.89211
11
5.12278
21
-3.89177
0
LINE
8
BLACK
6
CONTINUOUS
10
5.12278
20
-3.89177
11
5.12278
21
-3.89169
0
LINE
8
BLACK
6
CONTINUOUS
10
5.12278
20
-3.89169
11
5.11821
21
-3.88087
0
LINE
8
BLACK
6
CONTINUOUS
10
5.11821
20
-3.88087
11
5.11222
21
-3.87033
0
LINE
8
BLACK
6
CONTINUOUS
10
5.11222
20
-3.87033
11
5.10503
21
-3.86055
0
LINE
8
BLACK
6
CONTINUOUS
10
5.10503
20
-3.86055
11
5.09674
21
-3.85169
0
LINE
8
BLACK
6
CONTINUOUS
10
5.09674
20
-3.85169
11
5.08748
21
-3.84386
0
LINE
8
BLACK
6
CONTINUOUS
10
5.08748
20
-3.84386
11
5.07736
21
-3.83717
0
LINE
8
BLACK
6
CONTINUOUS
10
5.07736
20
-3.83717
11
5.06652
21
-3.8317
0
LINE
8
BLACK
6
CONTINUOUS
10
5.06652
20
-3.8317
11
5.05513
21
-3.82755
0
LINE
8
BLACK
6
CONTINUOUS
10
5.05513
20
-3.82755
11
5.04332
21
-3.82476
0
LINE
8
BLACK
6
CONTINUOUS
10
5.04332
20
-3.82476
11
5.03127
21
-3.82337
0
LINE
8
BLACK
6
CONTINUOUS
10
5.03127
20
-3.82337
11
5.01914
21
-3.8234
0
LINE
8
BLACK
6
CONTINUOUS
10
5.01914
20
-3.8234
11
5.00709
21
-3.82485
0
LINE
8
BLACK
6
CONTINUOUS
10
5.00709
20
-3.82485
11
4.9953
21
-3.8277
0
LINE
8
BLACK
6
CONTINUOUS
10
4.9953
20
-3.8277
11
4.98427
21
-3.83179
0
LINE
8
BLACK
6
CONTINUOUS
10
4.98427
20
-3.83179
11
4.98426
21
-3.8318
0
LINE
8
BLACK
6
CONTINUOUS
10
4.98426
20
-3.8318
11
4.98402
21
-3.83206
0
LINE
8
BLACK
6
CONTINUOUS
10
4.98402
20
-3.83206
11
4.38029
21
-4.12052
0
LINE
8
BLACK
6
CONTINUOUS
10
4.38029
20
-4.12052
11
4.38024
21
-4.12052
0
LINE
8
BLACK
6
CONTINUOUS
10
4.38024
20
-4.12052
11
4.3802
21
-4.12055
0
LINE
8
BLACK
6
CONTINUOUS
10
4.3802
20
-4.12055
11
4.37987
21
-4.12054
0
LINE
8
BLACK
6
CONTINUOUS
10
4.37987
20
-4.12054
11
4.37979
21
-4.12054
0
LINE
8
BLACK
6
CONTINUOUS
10
4.37979
20
-4.12054
11
4.37083
21
-4.12459
0
LINE
8
BLACK
6
CONTINUOUS
10
4.37083
20
-4.12459
11
4.3622
21
-4.13004
0
LINE
8
BLACK
6
CONTINUOUS
10
4.3622
20
-4.13004
11
4.3544
21
-4.13663
0
LINE
8
BLACK
6
CONTINUOUS
10
4.3544
20
-4.13663
11
4.34758
21
-4.14424
0
LINE
8
BLACK
6
CONTINUOUS
10
4.34758
20
-4.14424
11
4.34189
21
-4.15272
0
LINE
8
BLACK
6
CONTINUOUS
10
4.34189
20
-4.15272
11
4.33742
21
-4.16191
0
LINE
8
BLACK
6
CONTINUOUS
10
4.33742
20
-4.16191
11
4.33426
21
-4.17162
0
LINE
8
BLACK
6
CONTINUOUS
10
4.33426
20
-4.17162
11
4.33248
21
-4.18168
0
LINE
8
BLACK
6
CONTINUOUS
10
4.33248
20
-4.18168
11
4.33211
21
-4.19188
0
LINE
8
BLACK
6
CONTINUOUS
10
4.33211
20
-4.19188
11
4.33315
21
-4.20204
0
LINE
8
BLACK
6
CONTINUOUS
10
4.33315
20
-4.20204
11
4.33549
21
-4.21159
0
LINE
8
BLACK
6
CONTINUOUS
10
4.33549
20
-4.21159
11
4.33569
21
-4.21175
0
LINE
8
BLACK
6
CONTINUOUS
10
4.33569
20
-4.21175
11
4.37338
21
-4.28302
0
LINE
8
BLACK
6
CONTINUOUS
10
4.37338
20
-4.28302
11
4.37339
21
-4.28305
0
LINE
8
BLACK
6
CONTINUOUS
10
4.37339
20
-4.28305
11
4.37341
21
-4.28306
0
LINE
8
BLACK
6
CONTINUOUS
10
4.37341
20
-4.28306
11
4.37661
21
-4.29146
0
LINE
8
BLACK
6
CONTINUOUS
10
4.37661
20
-4.29146
11
4.37862
21
-4.30022
0
LINE
8
BLACK
6
CONTINUOUS
10
4.37862
20
-4.30022
11
4.37939
21
-4.30917
0
LINE
8
BLACK
6
CONTINUOUS
10
4.37939
20
-4.30917
11
4.37891
21
-4.31815
0
LINE
8
BLACK
6
CONTINUOUS
10
4.37891
20
-4.31815
11
4.37719
21
-4.32697
0
LINE
8
BLACK
6
CONTINUOUS
10
4.37719
20
-4.32697
11
4.37426
21
-4.33546
0
LINE
8
BLACK
6
CONTINUOUS
10
4.37426
20
-4.33546
11
4.37019
21
-4.34347
0
LINE
8
BLACK
6
CONTINUOUS
10
4.37019
20
-4.34347
11
4.36504
21
-4.35083
0
LINE
8
BLACK
6
CONTINUOUS
10
4.36504
20
-4.35083
11
4.35891
21
-4.35741
0
LINE
8
BLACK
6
CONTINUOUS
10
4.35891
20
-4.35741
11
4.35194
21
-4.36308
0
LINE
8
BLACK
6
CONTINUOUS
10
4.35194
20
-4.36308
11
4.34425
21
-4.36772
0
LINE
8
BLACK
6
CONTINUOUS
10
4.34425
20
-4.36772
11
4.33609
21
-4.3712
0
LINE
8
BLACK
6
CONTINUOUS
10
4.33609
20
-4.3712
11
4.33609
21
-4.37121
0
LINE
8
BLACK
6
CONTINUOUS
10
4.33609
20
-4.37121
11
3.77905
21
-4.63917
0
LINE
8
BLACK
6
CONTINUOUS
10
3.77905
20
-4.63917
11
3.77901
21
-4.63918
0
LINE
8
BLACK
6
CONTINUOUS
10
3.77901
20
-4.63918
11
3.77899
21
-4.6392
0
LINE
8
BLACK
6
CONTINUOUS
10
3.77899
20
-4.6392
11
3.77864
21
-4.6392
0
LINE
8
BLACK
6
CONTINUOUS
10
3.77864
20
-4.6392
11
3.77863
21
-4.6392
0
LINE
8
BLACK
6
CONTINUOUS
10
3.77863
20
-4.6392
11
3.77034
21
-4.64327
0
LINE
8
BLACK
6
CONTINUOUS
10
3.77034
20
-4.64327
11
3.76242
21
-4.64862
0
LINE
8
BLACK
6
CONTINUOUS
10
3.76242
20
-4.64862
11
3.7553
21
-4.65501
0
LINE
8
BLACK
6
CONTINUOUS
10
3.7553
20
-4.65501
11
3.74912
21
-4.66232
0
LINE
8
BLACK
6
CONTINUOUS
10
3.74912
20
-4.66232
11
3.744
21
-4.6704
0
LINE
8
BLACK
6
CONTINUOUS
10
3.744
20
-4.6704
11
3.74003
21
-4.6791
0
LINE
8
BLACK
6
CONTINUOUS
10
3.74003
20
-4.6791
11
3.73729
21
-4.68827
0
LINE
8
BLACK
6
CONTINUOUS
10
3.73729
20
-4.68827
11
3.73583
21
-4.69772
0
LINE
8
BLACK
6
CONTINUOUS
10
3.73583
20
-4.69772
11
3.73568
21
-4.70729
0
LINE
8
BLACK
6
CONTINUOUS
10
3.73568
20
-4.70729
11
3.73679
21
-4.71642
0
LINE
8
BLACK
6
CONTINUOUS
10
3.73679
20
-4.71642
11
3.73695
21
-4.71659
0
LINE
8
BLACK
6
CONTINUOUS
10
3.73695
20
-4.71659
11
3.76645
21
-4.79359
0
LINE
8
BLACK
6
CONTINUOUS
10
3.76645
20
-4.79359
11
3.76645
21
-4.79371
0
LINE
8
BLACK
6
CONTINUOUS
10
3.76645
20
-4.79371
11
3.76651
21
-4.79381
0
LINE
8
BLACK
6
CONTINUOUS
10
3.76651
20
-4.79381
11
3.7668
21
-4.8008
0
LINE
8
BLACK
6
CONTINUOUS
10
3.7668
20
-4.8008
11
3.76585
21
-4.80774
0
LINE
8
BLACK
6
CONTINUOUS
10
3.76585
20
-4.80774
11
3.76367
21
-4.81438
0
LINE
8
BLACK
6
CONTINUOUS
10
3.76367
20
-4.81438
11
3.76033
21
-4.82054
0
LINE
8
BLACK
6
CONTINUOUS
10
3.76033
20
-4.82054
11
3.75596
21
-4.82599
0
LINE
8
BLACK
6
CONTINUOUS
10
3.75596
20
-4.82599
11
3.75068
21
-4.83058
0
LINE
8
BLACK
6
CONTINUOUS
10
3.75068
20
-4.83058
11
3.74466
21
-4.83416
0
LINE
8
BLACK
6
CONTINUOUS
10
3.74466
20
-4.83416
11
3.74466
21
-4.83416
0
LINE
8
BLACK
6
CONTINUOUS
10
3.74466
20
-4.83416
11
3.74466
21
-4.83416
0
LINE
8
BLACK
6
CONTINUOUS
10
3.74466
20
-4.83416
11
3.74465
21
-4.83416
0
LINE
8
BLACK
6
CONTINUOUS
10
3.74465
20
-4.83416
11
3.22038
21
-5.07918
0
LINE
8
BLACK
6
CONTINUOUS
10
3.22038
20
-5.07918
11
3.22003
21
-5.0792
0
LINE
8
BLACK
6
CONTINUOUS
10
3.22003
20
-5.0792
11
3.20919
21
-5.08544
0
LINE
8
BLACK
6
CONTINUOUS
10
3.20919
20
-5.08544
11
3.19875
21
-5.09296
0
LINE
8
BLACK
6
CONTINUOUS
10
3.19875
20
-5.09296
11
3.18913
21
-5.10149
0
LINE
8
BLACK
6
CONTINUOUS
10
3.18913
20
-5.10149
11
3.18042
21
-5.11095
0
LINE
8
BLACK
6
CONTINUOUS
10
3.18042
20
-5.11095
11
3.17271
21
-5.12125
0
LINE
8
BLACK
6
CONTINUOUS
10
3.17271
20
-5.12125
11
3.16609
21
-5.13228
0
LINE
8
BLACK
6
CONTINUOUS
10
3.16609
20
-5.13228
11
3.16062
21
-5.14392
0
LINE
8
BLACK
6
CONTINUOUS
10
3.16062
20
-5.14392
11
3.15636
21
-5.15605
0
LINE
8
BLACK
6
CONTINUOUS
10
3.15636
20
-5.15605
11
3.15335
21
-5.16856
0
LINE
8
BLACK
6
CONTINUOUS
10
3.15335
20
-5.16856
11
3.15162
21
-5.1813
0
LINE
8
BLACK
6
CONTINUOUS
10
3.15162
20
-5.1813
11
3.15119
21
-5.19416
0
LINE
8
BLACK
6
CONTINUOUS
10
3.15119
20
-5.19416
11
3.15207
21
-5.20699
0
LINE
8
BLACK
6
CONTINUOUS
10
3.15207
20
-5.20699
11
3.15424
21
-5.21967
0
LINE
8
BLACK
6
CONTINUOUS
10
3.15424
20
-5.21967
11
3.15759
21
-5.23171
0
LINE
8
BLACK
6
CONTINUOUS
10
3.15759
20
-5.23171
11
3.1578
21
-5.23191
0
LINE
8
BLACK
6
CONTINUOUS
10
3.1578
20
-5.23191
11
3.42659
21
-5.825
0
LINE
8
BLACK
6
CONTINUOUS
10
3.42659
20
-5.825
11
3.42659
21
-5.82506
0
LINE
8
BLACK
6
CONTINUOUS
10
3.42659
20
-5.82506
11
3.42663
21
-5.82511
0
LINE
8
BLACK
6
CONTINUOUS
10
3.42663
20
-5.82511
11
3.42661
21
-5.82543
0
LINE
8
BLACK
6
CONTINUOUS
10
3.42661
20
-5.82543
11
3.42661
21
-5.82557
0
LINE
8
BLACK
6
CONTINUOUS
10
3.42661
20
-5.82557
11
3.43133
21
-5.83838
0
LINE
8
BLACK
6
CONTINUOUS
10
3.43133
20
-5.83838
11
3.43753
21
-5.85103
0
LINE
8
BLACK
6
CONTINUOUS
10
3.43753
20
-5.85103
11
3.44499
21
-5.86298
0
LINE
8
BLACK
6
CONTINUOUS
10
3.44499
20
-5.86298
11
3.45365
21
-5.8741
0
LINE
8
BLACK
6
CONTINUOUS
10
3.45365
20
-5.8741
11
3.46339
21
-5.88427
0
LINE
8
BLACK
6
CONTINUOUS
10
3.46339
20
-5.88427
11
3.47413
21
-5.89339
0
LINE
8
BLACK
6
CONTINUOUS
10
3.47413
20
-5.89339
11
3.48575
21
-5.90136
0
LINE
8
BLACK
6
CONTINUOUS
10
3.48575
20
-5.90136
11
3.49812
21
-5.90809
0
LINE
8
BLACK
6
CONTINUOUS
10
3.49812
20
-5.90809
11
3.51112
21
-5.91352
0
LINE
8
BLACK
6
CONTINUOUS
10
3.51112
20
-5.91352
11
3.52461
21
-5.91759
0
LINE
8
BLACK
6
CONTINUOUS
10
3.52461
20
-5.91759
11
3.53844
21
-5.92025
0
LINE
8
BLACK
6
CONTINUOUS
10
3.53844
20
-5.92025
11
3.55248
21
-5.92147
0
LINE
8
BLACK
6
CONTINUOUS
10
3.55248
20
-5.92147
11
3.56616
21
-5.92126
0
LINE
8
BLACK
6
CONTINUOUS
10
3.56616
20
-5.92126
11
3.56624
21
-5.92123
0
LINE
8
BLACK
6
CONTINUOUS
10
3.56624
20
-5.92123
11
3.56655
21
-5.92107
0
LINE
8
BLACK
6
CONTINUOUS
10
3.56655
20
-5.92107
11
3.56658
21
-5.92108
0
LINE
8
BLACK
6
CONTINUOUS
10
3.56658
20
-5.92108
11
3.56661
21
-5.92107
0
LINE
8
BLACK
6
CONTINUOUS
10
3.56661
20
-5.92107
11
7.14747
21
-5.8919
0
LINE
8
BLACK
6
CONTINUOUS
10
7.14747
20
-5.8919
11
7.14747
21
-5.8919
0
LINE
8
BLACK
6
CONTINUOUS
10
7.14747
20
-5.8919
11
7.14748
21
-5.8919
0
LINE
8
BLACK
6
CONTINUOUS
10
7.14748
20
-5.8919
11
7.14782
21
-5.89204
0
LINE
8
BLACK
6
CONTINUOUS
10
7.14782
20
-5.89204
11
7.14785
21
-5.89205
0
LINE
8
BLACK
6
CONTINUOUS
10
7.14785
20
-5.89205
11
7.16422
21
-5.89148
0
LINE
8
BLACK
6
CONTINUOUS
10
7.16422
20
-5.89148
11
7.18085
21
-5.88952
0
LINE
8
BLACK
6
CONTINUOUS
10
7.18085
20
-5.88952
11
7.19727
21
-5.8862
0
LINE
8
BLACK
6
CONTINUOUS
10
7.19727
20
-5.8862
11
7.21336
21
-5.88155
0
LINE
8
BLACK
6
CONTINUOUS
10
7.21336
20
-5.88155
11
7.22902
21
-5.8756
0
LINE
8
BLACK
6
CONTINUOUS
10
7.22902
20
-5.8756
11
7.24413
21
-5.86838
0
LINE
8
BLACK
6
CONTINUOUS
10
7.24413
20
-5.86838
11
7.2586
21
-5.85994
0
LINE
8
BLACK
6
CONTINUOUS
10
7.2586
20
-5.85994
11
7.27233
21
-5.85035
0
LINE
8
BLACK
6
CONTINUOUS
10
7.27233
20
-5.85035
11
7.28523
21
-5.83967
0
LINE
8
BLACK
6
CONTINUOUS
10
7.28523
20
-5.83967
11
7.29721
21
-5.82796
0
LINE
8
BLACK
6
CONTINUOUS
10
7.29721
20
-5.82796
11
7.30819
21
-5.81531
0
LINE
8
BLACK
6
CONTINUOUS
10
7.30819
20
-5.81531
11
7.31809
21
-5.8018
0
LINE
8
BLACK
6
CONTINUOUS
10
7.31809
20
-5.8018
11
7.32685
21
-5.78752
0
LINE
8
BLACK
6
CONTINUOUS
10
7.32685
20
-5.78752
11
7.33441
21
-5.77258
0
LINE
8
BLACK
6
CONTINUOUS
10
7.33441
20
-5.77258
11
7.34072
21
-5.75706
0
LINE
8
BLACK
6
CONTINUOUS
10
7.34072
20
-5.75706
11
7.34562
21
-5.74148
0
LINE
8
BLACK
6
CONTINUOUS
10
7.34562
20
-5.74148
11
7.34554
21
-5.74129
0
LINE
8
BLACK
6
CONTINUOUS
10
7.34554
20
-5.74129
11
7.35343
21
-3.53838
0
LINE
8
BLACK
6
CONTINUOUS
10
7.35343
20
-3.53838
11
7.35357
21
-3.53804
0
LINE
8
BLACK
6
CONTINUOUS
10
7.35357
20
-3.53804
11
7.35357
21
-3.53803
0
LINE
8
BLACK
6
CONTINUOUS
10
7.35357
20
-3.53803
11
7.35275
21
-3.52611
0
LINE
8
BLACK
6
CONTINUOUS
10
7.35275
20
-3.52611
11
7.35052
21
-3.51399
0
LINE
8
BLACK
6
CONTINUOUS
10
7.35052
20
-3.51399
11
7.34695
21
-3.50221
0
LINE
8
BLACK
6
CONTINUOUS
10
7.34695
20
-3.50221
11
7.34209
21
-3.49089
0
LINE
8
BLACK
6
CONTINUOUS
10
7.34209
20
-3.49089
11
7.33598
21
-3.4802
0
LINE
8
BLACK
6
CONTINUOUS
10
7.33598
20
-3.4802
11
7.32871
21
-3.47026
0
LINE
8
BLACK
6
CONTINUOUS
10
7.32871
20
-3.47026
11
7.32038
21
-3.46119
0
LINE
8
BLACK
6
CONTINUOUS
10
7.32038
20
-3.46119
11
7.31108
21
-3.45312
0
LINE
8
BLACK
6
CONTINUOUS
10
7.31108
20
-3.45312
11
7.30093
21
-3.44614
0
LINE
8
BLACK
6
CONTINUOUS
10
7.30093
20
-3.44614
11
7.29007
21
-3.44034
0
LINE
8
BLACK
6
CONTINUOUS
10
7.29007
20
-3.44034
11
7.27862
21
-3.43579
0
LINE
8
BLACK
6
CONTINUOUS
10
7.27862
20
-3.43579
11
7.26674
21
-3.43256
0
LINE
8
BLACK
6
CONTINUOUS
10
7.26674
20
-3.43256
11
7.25457
21
-3.43069
0
LINE
8
BLACK
6
CONTINUOUS
10
7.25457
20
-3.43069
11
7.24226
21
-3.43018
0
LINE
8
BLACK
6
CONTINUOUS
10
7.24226
20
-3.43018
11
7.23037
21
-3.43104
  0
ENDSEC
  0
EOF
